/* XPM */
static char *about[] = {
/* columns rows colors chars-per-pixel */
"24 24 158 2",
"   c black",
".  c #000B00",
"X  c #001601",
"o  c #171600",
"O  c #002A02",
"+  c #003703",
"@  c #003B03",
"#  c #003F03",
"$  c #22001E",
"%  c #23001E",
"&  c #2A1B00",
"*  c #2F0029",
"=  c #36002F",
"-  c #390031",
";  c #342100",
":  c #382300",
">  c #392400",
",  c #3E2700",
"<  c #313000",
"1  c #393900",
"2  c #004403",
"3  c #004E04",
"4  c #005004",
"5  c #005404",
"6  c #006305",
"7  c #006405",
"8  c #006505",
"9  c #006C05",
"0  c #006D05",
"q  c #006D06",
"w  c #007206",
"e  c #49003F",
"r  c #422900",
"t  c #482D00",
"y  c #523400",
"u  c #5D3B00",
"i  c #5E3B00",
"p  c #633E00",
"a  c #653F00",
"s  c #530047",
"d  c #57004B",
"f  c #5E0051",
"g  c #650057",
"h  c #6A005C",
"j  c #6F005F",
"k  c #740064",
"l  c #770066",
"z  c #770067",
"x  c #424100",
"c  c #484800",
"v  c #565600",
"b  c #5A5A00",
"n  c #5B5A00",
"m  c #5C5C00",
"M  c #654000",
"N  c #664000",
"B  c #674100",
"V  c #684200",
"C  c #6F4600",
"Z  c #744900",
"A  c #784C00",
"S  c #794C00",
"D  c #6A6900",
"F  c #747300",
"G  c #797900",
"H  c #008007",
"J  c #008107",
"K  c #008507",
"L  c #008807",
"P  c #008B07",
"I  c #008D07",
"U  c #009708",
"Y  c #009E08",
"T  c #00AB09",
"R  c #00AC09",
"E  c #00B60A",
"W  c #00BD0A",
"Q  c #00C00A",
"!  c #00C20A",
"~  c #00D20B",
"^  c #00D50B",
"/  c #00D60B",
"(  c #00EA0C",
")  c #00ED0D",
"_  c #00F60D",
"`  c #00FE0D",
"'  c #00FF0E",
"]  c #850073",
"[  c #880076",
"{  c #8B0077",
"}  c #8C0078",
"|  c #92007E",
" . c #835300",
".. c #8C5800",
"X. c #8E5A00",
"o. c #975F00",
"O. c #9F6400",
"+. c #A76900",
"@. c #A86A00",
"#. c #AE6D00",
"$. c #B37100",
"%. c #B57200",
"&. c #B67300",
"*. c #970083",
"=. c #990084",
"-. c #9A0084",
";. c #9A0085",
":. c #A1008B",
">. c #A80091",
",. c #B3009A",
"<. c #B5009C",
"1. c #C200A7",
"2. c #C800AC",
"3. c #C900AE",
"4. c #CA00AE",
"5. c #E300C4",
"6. c #E400C5",
"7. c #E600C7",
"8. c #E800C8",
"9. c #FA00D7",
"0. c #FD00DA",
"q. c #FE00DB",
"w. c #FF00DC",
"e. c #818000",
"r. c #848400",
"t. c #8A8A00",
"y. c #919100",
"u. c #949400",
"i. c #959400",
"p. c #969500",
"a. c #979700",
"s. c #9C9B00",
"d. c #9D9C00",
"f. c #A3A200",
"g. c #ADAD00",
"h. c #B6B500",
"j. c #B7B600",
"k. c #BDBC00",
"l. c #CD8100",
"z. c #CE8200",
"x. c #D28400",
"c. c #D88800",
"v. c #EE9600",
"b. c #F09800",
"n. c #F29900",
"m. c #FC9F00",
"M. c #FEA000",
"N. c #FFA100",
"B. c #C1C000",
"V. c #D4D300",
"C. c #D7D700",
"Z. c #E8E700",
"A. c #F1F000",
"S. c #F3F200",
"D. c #FDFC00",
"F. c #FFFE00",
"G. c gray100",
"H. c None",
/* pixels */
"H.H.H.H.H.H.H.H.H.H.H.H.H.H.H.H.H.H.H.H.H.H.H.H.",
"H.H.H.H.H.g - H.H.H.H.H.H.H.H.H.H.H.y H.H.H.H.H.",
"H.H.H.H.  <.} H.H.H.H.H.H.H.H.H.H.B l.; H.H.H.H.",
"H.H.H.H.j 9.4.* H.H.H.H.H.H.H.H.H.#.N.X.H.H.H.H.",
"% f ] ;.4.w.w.>.;.l e H.H.t Z X.o.b.N.c.+.X.u > ",
"  *.0.w.w.w.w.w.0.8.l H.H.B x.N.N.N.N.N.N.N.%., ",
"H.  | 0.w.w.w.w.5.l H.H.H.H.B l.N.N.N.N.N.$.r H.",
"H.H.  <.w.w.w.w.[ H.H.H.H.H.H.u N.N.N.N.x.; H.H.",
"H.H.H.1.w.w.w.w.:.H.H.H.H.H.H. .N.N.N.N.v.& H.H.",
"H.H.= 5.4.] ;.5.,.H.H.H.H.H.H.O.b.+.S %.m.V H.H.",
"H.H.s [ % H.H.d h H.H.H.H.H.H.C a H.H.  S p H.H.",
"H.H.H.H.H.H.H.H.H.H.H.H.H.H.H.H.H.H.H.H.H.H.H.H.",
"H.H.H.H.H.H.H.H.H.H.H.H.H.H.H.H.H.H.H.H.H.H.H.H.",
"H.H.H.H.H.n c H.H.H.H.H.H.H.H.H.H.H.3 H.H.H.H.H.",
"H.H.H.H.H.s.p.H.H.H.H.H.H.H.H.H.H.6 ! # H.H.H.H.",
"H.H.H.H.m Z.V.x H.H.H.H.H.H.H.H.H.T ' L H.H.H.H.",
"  < D y.j.D.D.f.e.v o H.H.. 3 J U ) ' ~ P q +   ",
"  t.D.D.D.D.D.D.D.S.G H.H.6 ^ ' ' ' ' ' ' ' E 2 ",
"H.  p.D.D.D.D.D.A.r.H.H.H.H.q ^ ' ' ' ' ' W 3 H.",
"H.H.  h.D.D.D.D.p.H.H.H.H.H.H.6 ' ' ' ' ^ # H.H.",
"H.H.H.k.D.D.D.D.g.H.H.H.H.H.H.J ' ' ' ' ( O H.H.",
"H.H.  V.C.p.d.Z.k.H.H.H.H.H.H.Y _ R K ! ' 7 H.H.",
"H.H.1 p.c H.H.n F H.H.H.H.H.H.w q H.H.X L 7 H.H.",
"H.H.H.H.H.H.H.H.H.H.H.H.H.H.H.H.H.H.H.H.H.H.H.H."
};
