/* XPM */
static char *album[] = {
/* columns rows colors chars-per-pixel */
"24 24 143 2",
"   c #000000",
".  c #0A0503",
"X  c #0E0805",
"o  c #130A06",
"O  c #150D09",
"+  c #1A0E08",
"@  c #17100D",
"#  c #1C100A",
"$  c #23130B",
"%  c #29160E",
"&  c #2C180E",
"*  c #231813",
"=  c #2E1B12",
"-  c #321C10",
";  c #391F13",
":  c #28201C",
">  c #3B2114",
",  c #2E2824",
"<  c #362E2A",
"1  c #3C2D25",
"2  c #39332F",
"3  c #383432",
"4  c #3E3835",
"5  c #15016E",
"6  c #1B056D",
"7  c #240A6D",
"8  c #2A0E6B",
"9  c #2E1068",
"0  c #371567",
"q  c #34156B",
"w  c #3A1767",
"e  c #38196C",
"r  c #3E1F70",
"t  c #422516",
"y  c #4C2A19",
"u  c #532E1C",
"i  c #54301D",
"p  c #5C341F",
"a  c #40342E",
"s  c #4A3328",
"d  c #423630",
"f  c #433A36",
"g  c #443E3A",
"h  c #4A3F3A",
"j  c #533D32",
"k  c #663A25",
"l  c #401B64",
"z  c #401E69",
"x  c #472063",
"c  c #42216C",
"v  c #4D2461",
"b  c #4D286A",
"n  c #552F6C",
"m  c #5C346B",
"M  c #533072",
"N  c #68365D",
"B  c #6F3952",
"V  c #723A57",
"C  c #723D5B",
"Z  c #643765",
"A  c #62396B",
"S  c #6E3D61",
"D  c #4B413D",
"F  c #544137",
"G  c #55443B",
"H  c #604232",
"J  c #684635",
"K  c #4D4440",
"L  c #524944",
"P  c #554E4B",
"I  c #594B44",
"U  c #5B4D48",
"Y  c #5C504B",
"T  c #5C5451",
"R  c #615956",
"E  c #75415C",
"W  c #7F5C4B",
"Q  c #765355",
"!  c #704269",
"~  c #66605D",
"^  c #6B6664",
"/  c #746D69",
"(  c #864E32",
")  c #8D4F30",
"_  c #81523B",
"`  c #945333",
"'  c #965B3D",
"]  c #9A5635",
"[  c #A15A37",
"{  c #A55D39",
"}  c #AB603A",
"|  c #B4653E",
" . c #834654",
".. c #854A58",
"X. c #934F4E",
"o. c #985453",
"O. c #965D66",
"+. c #915E6D",
"@. c #946954",
"#. c #9F615F",
"$. c #9E7059",
"%. c #827D7A",
"&. c #A95D43",
"*. c #A35F54",
"=. c #A56647",
"-. c #A56358",
";. c #AA675A",
":. c #AF6853",
">. c #A7755D",
",. c #B86743",
"<. c #BD6B42",
"1. c #BE704A",
"2. c #BF7250",
"3. c #B9735A",
"4. c #BB7B5B",
"5. c #AF7A60",
"6. c #B67E63",
"7. c #C06E46",
"8. c #C2724B",
"9. c #C47751",
"0. c #C57954",
"q. c #C57C5A",
"w. c #C87E5A",
"e. c #86817E",
"r. c #BD8468",
"t. c #C9815E",
"y. c #C78362",
"u. c #C28769",
"i. c #CA8563",
"p. c #CD8B6A",
"a. c #D08E6D",
"s. c #D19172",
"d. c #948F8C",
"f. c #9D9A98",
"g. c #A2A1A0",
"h. c #A9A6A5",
"j. c #B2B0AF",
"k. c #BDBDBC",
"l. c #C1C1C1",
"z. c #CBCBCB",
"x. c #D0D0D0",
"c. c gray100",
"v. c None",
/* pixels */
"v.v.v.v.v.v.v.v.v.v.v.v.v.v.v.v.v.v.v.v.v.v.v.v.",
"v.v.v.v.v.v.v.v.v.v.v.v.v.v.v.v.v.v.v.v.v.v.v.v.",
"v.v.v.v.v.v.v.v.v.v.v.    v.v.v.v.v.v.v.v.v.v.v.",
"v.v.v.v.v.v.v.v.v.v.  % % +   v.v.v.v.v.v.v.v.v.",
"v.v.v.v.v.v.v.v.v.  & u ) | y #   v.v.v.v.v.v.v.",
"v.v.v.v.v.v.v.v.  - u ` <.<.<.{ > #   v.v.v.v.v.",
"v.v.v.v.v.v.v.  ; u ] <.<.7.<.7.8.' = O v.v.v.v.",
"v.v.v.v.v.v.. ; u ] <.,.V x v C 1.0.q._ * . v.v.",
"v.v.v.v.v.X > u { <.<.l 8 o.E 8 r 3.t.y.y.J *   ",
"v.v.v.v.o t u { <.<.&.w N 8.0.;.q q ! i.a.p.r.@ ",
"v.v.v.o t u B X.7.| 7.8.*.S x q 7 5 n p.p.u.d   ",
"v.v.+ u i { 0 7 v v w 8 7 Z #.A 6 m p.p.r.D P o ",
"v.+ u u | <.<. .C ..:.-.e b m 6 A p.s.r.D U = X ",
"$ $ u <.<.<.7.7.8.9.0.q.q.e 5 A p.s.6.D U % . v.",
"p < f k <.7.8.8.9.0.w.t.m 5 m a.p.>.L L $ . v.v.",
"> f z.%.a ( 8.9.q.w.i.O.6 r a.s.>.P L $   v.v.v.",
"  O g f.z.^ 1 =.w.t.i.i.+.z M @.T G #   v.v.v.v.",
"v.v.  * L j.k.R s 4.a.a.s.s.Q R F #   v.v.v.v.v.",
"v.v.v.v.  * R l.h.L F p.s.W R F #   v.v.v.v.v.v.",
"v.v.v.v.v.v.. , / z.d.g j / F #   v.v.v.v.v.v.v.",
"v.v.v.v.v.v.v.v.X 2 e.g.^ j +   v.v.v.v.v.v.v.v.",
"v.v.v.v.v.v.v.v.v.  + 3 1 +   v.v.v.v.v.v.v.v.v.",
"v.v.v.v.v.v.v.v.v.v.v.  . v.v.v.v.v.v.v.v.v.v.v.",
"v.v.v.v.v.v.v.v.v.v.v.v.v.v.v.v.v.v.v.v.v.v.v.v."
};
