/* XPM */
static char *album[] = {
/* columns rows colors chars-per-pixel */
"24 24 182 2",
"   c black",
".  c #0A0909",
"X  c #0C0B0B",
"o  c #100805",
"O  c #140B07",
"+  c #1B0F09",
"@  c #24140B",
"#  c #25140C",
"$  c #25150D",
"%  c #29160C",
"&  c #2B180F",
"*  c #2F1A10",
"=  c #301A0F",
"-  c #331D12",
";  c #341C10",
":  c #2F221B",
">  c #3B2012",
",  c #392014",
"<  c #3D2013",
"1  c #3F2214",
"2  c #242221",
"3  c #262423",
"4  c #262523",
"5  c #272524",
"6  c #2F2D2B",
"7  c #32302E",
"8  c #33312F",
"9  c #343230",
"0  c #363432",
"q  c #3E3B39",
"w  c #412517",
"e  c #472414",
"r  c #472515",
"t  c #482515",
"y  c #482716",
"u  c #492616",
"i  c #4A2616",
"p  c #4D2717",
"a  c #492919",
"s  c #4F2918",
"d  c #512A19",
"f  c #532B19",
"g  c #532C19",
"h  c #532E1D",
"j  c #552F1B",
"k  c #572F1B",
"l  c #572E1C",
"z  c #582E1B",
"x  c #592F1C",
"c  c #58311F",
"v  c #5A301C",
"b  c #5B301C",
"n  c #5E321D",
"m  c #412F26",
"M  c #44352D",
"N  c #47352D",
"B  c #493429",
"V  c #433832",
"C  c #403D3B",
"Z  c #483F3A",
"A  c #573829",
"S  c #61341F",
"D  c #65361F",
"F  c #613722",
"G  c #643621",
"H  c #653720",
"J  c #663821",
"K  c #673822",
"L  c #673E29",
"P  c #693922",
"I  c #693923",
"U  c #6A3A23",
"Y  c #6C3B24",
"T  c #6D3B24",
"R  c #6D3C23",
"E  c #6E3C24",
"W  c #6F3D24",
"Q  c #6F3D25",
"!  c #6F3F27",
"~  c #703D26",
"^  c #713E24",
"/  c #713E25",
"(  c #733F27",
")  c #763F24",
"_  c #5E4A3F",
"`  c #6F402A",
"'  c #624636",
"]  c #664433",
"[  c #734027",
"{  c #71442F",
"}  c #764128",
"|  c #764228",
" . c #774229",
".. c #77462E",
"X. c #794126",
"o. c #7B4226",
"O. c #784228",
"+. c #784229",
"@. c #794329",
"#. c #7A4429",
"$. c #7B452B",
"%. c #7C452B",
"&. c #7D452A",
"*. c #7D472E",
"=. c #7F472C",
"-. c #4C4946",
";. c #4F4C49",
":. c #514A46",
">. c #504C4A",
",. c #524D4B",
"<. c #5F4E45",
"1. c #54504D",
"2. c #595553",
"3. c #5D5753",
"4. c #5C5855",
"5. c #5F5A57",
"6. c #63544C",
"7. c #605B59",
"8. c #605C59",
"9. c #615C5A",
"0. c #6F645E",
"q. c #6D6763",
"w. c #6E6764",
"e. c #726C69",
"r. c #726D69",
"t. c #776D68",
"y. c #756F6C",
"u. c #77716E",
"i. c #797370",
"p. c #7B7571",
"a. c #7D7673",
"s. c #7F7976",
"d. c #814629",
"f. c #81472C",
"g. c #80482C",
"h. c #80482D",
"j. c #81492D",
"k. c #82492D",
"l. c #83492E",
"z. c #844A2D",
"x. c #854A2E",
"c. c #874C2F",
"v. c #894A2A",
"b. c #8B4A2B",
"n. c #8B4B2A",
"m. c #884C2F",
"M. c #894C2F",
"N. c #894E2F",
"B. c #894D30",
"V. c #8A4D30",
"C. c #8B4E30",
"Z. c #8B4E31",
"A. c #8C4F31",
"S. c #8D4F31",
"D. c #8D5031",
"F. c #8E5032",
"G. c #8F5132",
"H. c #904D2C",
"J. c #934F2D",
"K. c #97512E",
"L. c #98512E",
"P. c #905132",
"I. c #915233",
"U. c #817772",
"Y. c #89827E",
"T. c #8B8480",
"R. c #948D89",
"E. c #958E8A",
"W. c #988F89",
"Q. c #97908C",
"!. c #9B938F",
"~. c #9C9490",
"^. c #A19994",
"/. c #A29994",
"(. c #ADA49F",
"). c #AEA5A1",
"_. c #B5ACA7",
"`. c #B6ADA8",
"'. c #BAB1AC",
"]. c #BFB5B0",
"[. c gray100",
"{. c None",
/* pixels */
"{.{.{.{.{.{.{.{.{.{.> @ {.{.{.{.{.{.{.{.{.{.{.{.",
"{.{.{.{.{.{.{.{.{.= K.j & {.{.{.{.{.{.{.{.{.{.{.",
"{.{.{.{.{.{.{.{.  ) ^ I.$.-   {.{.{.{.{.{.{.{.{.",
"{.{.{.{.{.{.{.{.g b.x.I.I.Z.w O {.{.{.{.{.{.{.{.",
"{.{.{.{.{.{.{.< K.| I.I.I.I.I.c $ {.{.{.{.{.{.{.",
"{.{.{.{.{.{.@ b.E I.I.I.I.I.I.I.! * {.{.{.{.{.{.",
"{.{.{.{.{.  D X.F.I.I.I.I.I.I.I.I.g.,   {.{.{.{.",
"{.{.{.{.{.y H.g.I.I.A.U Y S +.I.I.I.F.a + {.{.{.",
"{.{.{.{.= K.[ I.I.I.j G I.M.f ~ I.I.I.I.G & {.{.",
"{.{.{.o o.E I.I.I.F.D z.I.I.M.f Y M.I.I.I.m   {.",
"{.{.{.j f.x.M.I.I.I.I.I.f.E U s y x.I.I.{ w.  {.",
"{.{.w n.&.J p ! | U x G +.A.~ y g.I.I.M.U.T.{.{.",
"{.% b.^ I.I.g.X.g.M.x.b M. .r &.I.I.I.6.'.>.{.{.",
"{.: g I.I.I.I.I.I.I.I.M.x e  .I.I.I.' ].5.{.{.{.",
"{.;.a.B I.I.I.I.I.I.I.x.y U I.I.I...^.y.  {.{.{.",
"{.0 r.E.V M.I.I.I.I.M.p n I.I.I.F.t.~.9 {.{.{.{.",
"{.{.2 1.^.-.[ I.I.I.Z.x ! I.I.I.<.`.>.{.{.{.{.{.",
"{.{.{.  q E.q.A I.I.I.I.+.f.I.] `.4.{.{.{.{.{.{.",
"{.{.{.{.{.8 i.Y.M I.I.I.I.I.=.W.y.  {.{.{.{.{.{.",
"{.{.{.{.{.{.3 2.~.Z g.I.I.I.0.Q.6 {.{.{.{.{.{.{.",
"{.{.{.{.{.{.{.. q Q.3.L I._ ).-.{.{.{.{.{.{.{.{.",
"{.{.{.{.{.{.{.{.{.8 s.p.M (.4.{.{.{.{.{.{.{.{.{.",
"{.{.{.{.{.{.{.{.{.{.3 5.5.r.  {.{.{.{.{.{.{.{.{.",
"{.{.{.{.{.{.{.{.{.{.{.. 3 3 {.{.{.{.{.{.{.{.{.{."
};
