/* XPM */
static char *edit[] = {
/* columns rows colors chars-per-pixel */
"24 24 192 2",
"   c black",
".  c #020201",
"X  c #040301",
"o  c #070703",
"O  c #0A0A05",
"+  c #0B0A05",
"@  c #0D0D06",
"#  c #0E0E07",
"$  c #0F0E07",
"%  c #141404",
"&  c #111008",
"*  c #141309",
"=  c #16160B",
"-  c #19180C",
";  c #1B1A0D",
":  c #1D1C0E",
">  c #1F1E0F",
",  c #281A01",
"<  c #2B1C01",
"1  c #212010",
"2  c #232111",
"3  c #232211",
"4  c #242311",
"5  c #272613",
"6  c #3A2602",
"7  c #312F17",
"8  c #34330D",
"9  c #37360D",
"0  c #3D363A",
"q  c #3B394D",
"w  c #3C3848",
"e  c #412A02",
"r  c #4C3102",
"t  c #4D3304",
"y  c #4D3C09",
"u  c #4D381C",
"i  c #513806",
"p  c #5D3C03",
"a  c #583F1A",
"s  c #443A34",
"d  c #414110",
"f  c #4E4D13",
"g  c #575615",
"h  c #594826",
"j  c #574A30",
"k  c #594E37",
"l  c #5D5A2D",
"z  c #694404",
"x  c #654C1C",
"c  c #6A4814",
"v  c #6A4D19",
"b  c #60501C",
"n  c #715219",
"m  c #705C1E",
"M  c #65622F",
"N  c #6D6A35",
"B  c #6E6B35",
"V  c #7E6728",
"C  c #7F6928",
"Z  c #7D6B2F",
"A  c #706C36",
"S  c #7B773C",
"D  c #414057",
"F  c #4B4A59",
"G  c #504E51",
"H  c #57555A",
"J  c #696248",
"K  c #6B654B",
"L  c #68665A",
"P  c #6D6A5E",
"I  c #6F6C60",
"U  c #875705",
"Y  c #885806",
"T  c #895906",
"R  c #8B5A05",
"E  c #8B5A06",
"W  c #8C5A05",
"Q  c #8D5B05",
"!  c #8D5B06",
"~  c #8E5B05",
"^  c #8F5C06",
"/  c #885B0F",
"(  c #815711",
")  c #905D05",
"_  c #905D06",
"`  c #915D06",
"'  c #935F05",
"]  c #935F06",
"[  c #8A6517",
"{  c #8D6715",
"}  c #946006",
"|  c #956006",
" . c #966105",
".. c #976106",
"X. c #96660D",
"o. c #986205",
"O. c #986206",
"+. c #986307",
"@. c #9A6306",
"#. c #9B6406",
"$. c #9C6406",
"%. c #9E6507",
"&. c #9F6706",
"*. c #98640B",
"=. c #9C6608",
"-. c #9E6708",
";. c #9C690D",
":. c #906513",
">. c #966710",
",. c #936814",
"<. c #9C6C11",
"1. c #836921",
"2. c #836B24",
"3. c #837335",
"4. c #86793C",
"5. c #A16807",
"6. c #A46D0B",
"7. c #A96D07",
"8. c #A86D08",
"9. c #807C62",
"0. c #858141",
"q. c #868141",
"w. c #868241",
"e. c #878241",
"r. c #878341",
"t. c #878342",
"y. c #888342",
"u. c #898542",
"i. c #8A8543",
"p. c #8B8643",
"a. c #8B8743",
"s. c #968F45",
"d. c #9B8D42",
"f. c #9E9249",
"g. c #989366",
"h. c #A09B4E",
"j. c #A39E69",
"k. c #B0AA55",
"l. c #B1AB56",
"z. c #B2AD56",
"x. c #B3AE57",
"c. c #B5AF58",
"v. c #B6B058",
"b. c #B8B359",
"n. c #B8B161",
"m. c #C0BA6E",
"M. c #C2BC6F",
"N. c #C4BF6D",
"B. c #C4BE70",
"V. c #D3D134",
"C. c #D5D435",
"Z. c #C6C06D",
"A. c #CCC663",
"S. c #CDC763",
"D. c #CCC56A",
"F. c #CEC864",
"G. c #CFC964",
"H. c #C7C170",
"J. c #C8C270",
"K. c #C9C270",
"L. c #C9C370",
"P. c #CCC671",
"I. c #CEC871",
"U. c #D0CA65",
"Y. c #D1CA65",
"T. c #D2CB66",
"R. c #D3CC66",
"E. c #D4CD67",
"W. c #D5CE67",
"Q. c #D6CF68",
"!. c #D7D068",
"~. c #D8D169",
"^. c #D9D269",
"/. c #DBD368",
"(. c #DAD36A",
"). c #DCD573",
"_. c #DDD674",
"`. c #DFD875",
"'. c #E3DC75",
"]. c #E7DF70",
"[. c #E8E070",
"{. c #ECE477",
"}. c #F1E978",
"|. c #F2EA78",
" X c #F5ED79",
".X c #F7EF79",
"XX c #F8F079",
"oX c #FAF279",
"OX c #FAF27A",
"+X c #FBF37A",
"@X c gray100",
"#X c None",
/* pixels */
"#X#X#X#X#X#X#X#X#X#X#X#X#X#X#X#X  #X#X#X#X#X#X#X",
"#X#X  l p.p.p.p.p.p.t.t.t.t.0.t.N # #X#X#X#X#X#X",
"#X#X  k.+X+X+X+XoX+X+X+X+X+XoX+X!.#   #X#X#X#X#X",
"#X#X  k.+X+X+X+XoXoX+X+X+X+X+X+X~.5 o + #X#X#X#X",
"#X#X  k.+X+X+X+X+X+X+X+X+X+X+X+X[.A S 7 #X#X#X#X",
"#X#X  z.+X+X+X+X+X+X+X+X+X+X+X+X+XoX+Xt.#X#X#X#X",
"#X#X  k. Xg.g.g.g.g.g.g.g.g.g.g.g.g.).M 9 f 8 #X",
"#X#X  z.}.H H H H H H H H H H H H G V i V.C.d #X",
"#X#X  x.oX'.'.'.'.'.'.'.'.'.'.'.d.,.^ ..y g #X#X",
"#X#X  x. XD D D D D D D D D w a ..} ^ 8.t % #X#X",
"#X#X  x.XXB.L.L.Z.L.L.L.N.3.>.! -...<.h   #X#X#X",
"#X#X  x.oX9.9.9.9.9.9.J n @.] ! 8.b n.0.#X#X#X#X",
"#X#X  c. XI I I I L h *.! @.] ( k I I.0.#X#X#X#X",
"#X#X  c.oX_._._.f.[ ] @.Y 6.2.D.`.`.}.0.#X#X#X#X",
"#X#X  c. XD q u -.! ] @.c 0 D D D D n.4.#X#X#X#X",
"#X#X  c.oX4.:.` $.T ;.Z N.P.P.P.I.I.}.t.#X#X#X#X",
"#X#X  s.1.&.` ^ &.v K 9.9.9.9.9.9.9.I.i.#X#X#X#X",
"#X  6 X.^ &.! / j P I I I I I I I I n.t.#X#X#X#X",
"< z &.` T &.2./.+X+X+X+X+X+X+X+X+X+X+X4.#X#X#X#X",
"r U @.^ { s F F F F F F F F F F F F B.t.#X#X#X#X",
"  p ..m ].j.j.j.j.j.j.j.j.j.j.j.j.j._.t.#X#X#X#X",
"#Xe , b.oX+X+X+X+X+X+X+X+X+X+XoX+X+XoXt.#X#X#X#X",
"#X#X  h.(.~.~.!.Q.E.E.E.T.U.U.G.G.S.S.B #X#X#X#X",
"#X#X  1 5 1 1 > > - - = * & # + o o     #X#X#X#X"
};
