/* XPM */
static char *edit[] = {
/* columns rows colors chars-per-pixel */
"24 24 197 2",
"   c black",
".  c #1A0F01",
"X  c #2E1A02",
"o  c #311C02",
"O  c #343317",
"+  c #412602",
"@  c #482A03",
"#  c #492A03",
"$  c #4D3B17",
"%  c #522F03",
"&  c #533003",
"*  c #543103",
"=  c #52491E",
"-  c #764405",
";  c #774505",
":  c #7C5C28",
">  c #745B32",
",  c #666331",
"<  c #676431",
"1  c #776035",
"2  c #75742A",
"3  c #737032",
"4  c #7D7A3B",
"5  c #7F7B3C",
"6  c #6F6E5C",
"7  c #7E6C48",
"8  c #71705A",
"9  c #72715D",
"0  c #75745F",
"q  c #777660",
"w  c #797861",
"e  c #7D7C62",
"r  c #985806",
"t  c #88601B",
"y  c #8F7C1B",
"u  c #90611E",
"i  c #90641F",
"p  c #9A6215",
"a  c #8B6A2D",
"s  c #86753B",
"d  c #807D3B",
"f  c #8F7331",
"g  c #927E3E",
"h  c #A96207",
"j  c #AD6407",
"k  c #A16917",
"l  c #A56A15",
"z  c #B46B0A",
"x  c #B56F12",
"c  c #BD7411",
"v  c #CA7509",
"b  c #CA780D",
"n  c #D07B0C",
"m  c #D67C09",
"M  c #D77E0B",
"N  c #96952E",
"B  c #BEBD30",
"V  c #8F8C5D",
"C  c #98954E",
"Z  c #9D984C",
"A  c #989552",
"S  c #999557",
"D  c #99965C",
"F  c #8D8B68",
"G  c #999760",
"H  c #9A9765",
"J  c #999068",
"K  c #9A9869",
"L  c #9A986E",
"P  c #9C977C",
"I  c #9A9872",
"U  c #9A9976",
"Y  c #9A9979",
"T  c #A6984F",
"R  c #A09156",
"E  c #A5A25D",
"W  c #B1A858",
"Q  c #B7B257",
"!  c #A7A271",
"~  c #A8A37A",
"^  c #B6AE75",
"/  c #E1830A",
"(  c #E3850A",
")  c #EC890A",
"_  c #ED8A0A",
"`  c #F08B0A",
"'  c #F28C0A",
"]  c #F48E0B",
"[  c #CECD34",
"{  c #C7C267",
"}  c #CBC568",
"|  c #CEC968",
" . c #C4C074",
".. c #C4C077",
"X. c #C4C07B",
"o. c #D3CE6A",
"O. c #D7D16B",
"+. c #EAE371",
"@. c #E8E37D",
"#. c #E8E37E",
"$. c #EEE87B",
"%. c #F1EA77",
"&. c #F0EA7A",
"*. c #F3EC7A",
"=. c #F4ED79",
"-. c #FBF477",
";. c #FBF47A",
":. c #FBF47B",
">. c #B0AE93",
",. c #B3B188",
"<. c #B8B68C",
"1. c #BBB98E",
"2. c #BEBB8D",
"3. c #BFBD89",
"4. c #BFBD8F",
"5. c #B4B393",
"6. c #B6B496",
"7. c #B6B498",
"8. c #B6B49A",
"9. c #B6B59D",
"0. c #B6B59F",
"q. c #BFBD93",
"w. c #BEBD95",
"e. c #BFBD95",
"r. c #B9B89D",
"t. c #B9B89F",
"y. c #B6B5A1",
"u. c #B6B5A3",
"i. c #B6B6A5",
"p. c #B6B6A7",
"a. c #B9B8A2",
"s. c #B9B8A4",
"d. c #BCBBA1",
"f. c #C1BE8C",
"g. c #C1BE8F",
"h. c #D4D182",
"j. c #D5D184",
"k. c #D7D384",
"l. c #D4D088",
"z. c #DFDA80",
"x. c #C4C3AD",
"c. c #C6C5AC",
"v. c #C9C7A7",
"b. c #E1DC81",
"n. c #E2DC80",
"m. c #E3DD80",
"M. c #E3DD82",
"N. c #E3DE87",
"B. c #E5E082",
"V. c #E7E38F",
"C. c #EFEB9A",
"Z. c #FBF582",
"A. c #FBF583",
"S. c #FBF689",
"D. c #FBF68A",
"F. c #FCF690",
"G. c #FCF792",
"H. c #FCF798",
"J. c #FCF799",
"K. c #FDF89F",
"L. c #EEEBAC",
"P. c #F0EBA1",
"I. c #F0ECA3",
"U. c #F0ECA7",
"Y. c #F0ECA9",
"T. c #F0EDAE",
"R. c #F1EDB0",
"E. c #F1EEB4",
"W. c #F1EFBB",
"Q. c #FDF8A0",
"!. c #FDF9A7",
"~. c #FBF8AE",
"^. c #FDF9A8",
"/. c #FDFAAE",
"(. c #FDFAAF",
"). c #F4F1B7",
"_. c #FEFBB6",
"`. c #FEFBB7",
"'. c #FEFBBC",
"]. c #FEFBBD",
"[. c #FEFBBE",
"{. c #D1D1CC",
"}. c #DFDFDA",
"|. c #E2E1DC",
" X c #E3E2DD",
".X c #E4E3DE",
"XX c #F4F2C2",
"oX c #FEFCC3",
"OX c #FEFCC5",
"+X c #FEFCC6",
"@X c #FEFCC7",
"#X c gray94",
"$X c #F4F4F4",
"%X c #F9F9F9",
"&X c #FDFDFD",
"*X c gray100",
"=X c None",
/* pixels */
"=X=X=X=X=X=X=X=X=X=X=X=X=X=X=X=X=X=X=X=X=X=X=X=X",
"=X< Q Q Q Q Q Q Q Q Q Z 8 =X=X=X=X=X=X=X=X=X=X=X",
"=X5 -.-.-.-.-.-.-.-.-.O.{.w =X=X=X=X=X=X=X=X=X=X",
"=X5 -.-.-.-.-.-.-.-.-.o.#X.Xq =X=X=X=X=X=X=X=X=X",
"=X5 -.-.-.-.-.-.-.-.-.| $X*X X0 =X=X=X=X=X=X=X=X",
"=X5 -.-.-.-.-.-.-.-.-.} %X*X*X X9 =X=X=X=X=X=X=X",
"=X5 -.-.-.-.-.-.-.-.-.{ *X*X*X*X}.6 =X  * % =X=X",
"=X5 -.-.-.-.-.-.-.-.-.+. . . ...X.V X - _ M @ =X",
"=Xd -.-.-.-.-.-.-.-.-.-.-.-.:.A.D.s h ] ] ] r . ",
"=Xd -.-.&.m.m.m.#.#.z.#.z.M.N.h.f M ] ] ] j @ =X",
"=X5 -.-.M.f.f.f.<.2.f.f.f.f.J u ' ] ] _ ; o =X=X",
"=X4 -.-.&.@.@.@.#.#.@.@.N.g c ] ] ] v &   =X=X=X",
"=X4 -.-.M.2.2.2.2.2.2.~ : ( ] ] ] p + =X=X=X=X=X",
"=X4 -.-.&.@.@.@.@.@.T k ] ] ] / a ! =X=X=X=X=X=X",
"=X4 -.-.z.2.<.q.,.> b ] ] ] x 7 ~.3.=X=X=X=X=X=X",
"=X4 -.-.&.@.@.W t _ ] ] ` i ^ Y._.4.=X=X=X=X=X=X",
"=X4 -.-.j.2.<.= z ] ] b > >.a.v.'.g.=X=X=X=X=X=X",
"=X4 -.-.=.$.4 [ y / l R I.Y.T.).@Xg.=X=X=X=X=X=X",
"=X4 -.-.j.F N B 2 $ P r.t.a.s.c.@Xe.=X=X=X=X=X=X",
"=X4 -.-.%.O 3 E V.C.P.U.T.E.W.XX@Xe.=X=X=X=X=X=X",
"=X5 -.-.l.5.6.7.8.9.9.9.y.p.p.x.@Xw.=X=X=X=X=X=X",
"=X5 -.-.A.D.G.J.K.^._._.[.@X@X@X@Xw.=X=X=X=X=X=X",
"=X4 -.Z.D.G.J.K.!.~._.[.@X@X@X@X@Xw.=X=X=X=X=X=X",
"=X, C A S D G H K L I U Y U Y Y Y e =X=X=X=X=X=X"
};
