/* XPM */
static char *exit[] = {
/* columns rows colors chars-per-pixel */
"24 24 124 2",
"   c #010000",
".  c #0B0501",
"X  c #0E0801",
"o  c #0D0C0A",
"O  c #120E0D",
"+  c #1A0E0E",
"@  c #131210",
"#  c #181514",
"$  c #181817",
"%  c #250E0E",
"&  c #2C0202",
"*  c #2C0C0C",
"=  c #261000",
"-  c #261515",
";  c #271818",
":  c #2A1A1A",
">  c #310B0B",
",  c #341D07",
"<  c #3B1A00",
"1  c #331515",
"2  c #391E1E",
"3  c #3B230A",
"4  c #272624",
"5  c #282625",
"6  c #2F2E2C",
"7  c #302F2D",
"8  c #3E2525",
"9  c #401E02",
"0  c #431919",
"q  c #442204",
"w  c #41290E",
"e  c #492606",
"r  c #482708",
"t  c #4C2909",
"y  c #452C10",
"u  c #482F12",
"i  c #453015",
"p  c #4B3213",
"a  c #512D0B",
"s  c #57320E",
"d  c #58340F",
"f  c #543210",
"g  c #5D3811",
"h  c #462121",
"j  c #4B2929",
"k  c #4D3D2C",
"l  c #543C22",
"z  c #503232",
"x  c #513939",
"c  c #593131",
"v  c #781A1A",
"b  c #623D14",
"n  c #6B2A2A",
"m  c #4F4538",
"M  c #664117",
"N  c #464443",
"B  c #4E4B48",
"V  c #514D4A",
"C  c #565350",
"Z  c #5A5552",
"A  c #5E5C59",
"S  c #6E4343",
"D  c #63594C",
"F  c #655959",
"G  c #6A635C",
"H  c #646464",
"J  c #6A6764",
"K  c #6E6B67",
"L  c #6C6C6C",
"P  c #746D6B",
"I  c #747373",
"U  c #7B7774",
"Y  c #7B7874",
"T  c #7B7B7B",
"R  c #8B3434",
"E  c #903535",
"W  c #953838",
"Q  c #993939",
"!  c #9B5E5E",
"~  c #A05050",
"^  c #A56363",
"/  c #B46E6E",
"(  c #CC0000",
")  c #D80101",
"_  c #D41D1D",
"`  c #DF1D1D",
"'  c #DC3A3A",
"]  c #E01F1F",
"[  c #E02020",
"{  c #E63C3C",
"}  c #E83F3F",
"|  c #D15252",
" . c #CA6666",
".. c #D27F7F",
"X. c #E84040",
"o. c #E55858",
"O. c #EE5C5C",
"+. c #E07070",
"@. c #EB7575",
"#. c #F67B7B",
"$. c #848484",
"%. c #898989",
"&. c #918D8D",
"*. c #949494",
"=. c #989797",
"-. c #9A9A9A",
";. c #A5A4A4",
":. c #ACABAB",
">. c #B4B4B4",
",. c #BBBBBB",
"<. c #D58181",
"1. c #D98484",
"2. c #C0BFBF",
"3. c #F39292",
"4. c #FF9B9B",
"5. c #C4C4C4",
"6. c #CACACA",
"7. c #D3D3D3",
"8. c #DADADA",
"9. c #E3E3E3",
"0. c #EAEAEA",
"q. c #F3F3F3",
"w. c #FEFEFE",
"e. c None",
/* pixels */
"e.e.e.e.e.e.e.e.e.e.e.e.e.e.e.e.e.e.e.e.e.e.e.e.",
"e.e.e.e.e.e.e.e.e.o $ @ @ @ @ O o o           e.",
"e.e.e.e.e.e.e.e.e.4 ,.>.;.*.$.T I N = = = .   e.",
"e.e.e.e.e.  e.e.e.4 8.6.>.;.=.$.T B < < < X   e.",
"e.e.e.e.e.+ ; e.e.4 7.6.>.;.=.$.I B < < < .   e.",
"e.e.e.e.e.; S ;   5 8.6.,.;.*.$.I B < < < .   e.",
"e.e.e.e.e.; 1./ ; 4 8.5.>.:.=.$.T B < < < .   e.",
"e.e.e.e.e.; <.4.<.: 6.6.,.;.-.%.$.V < < < .   e.",
"e.+ - - - +  .#.#...c :.,.:.-.*.%.C < < < X   e.",
"e.1 | | | | O.O.O.O.o.c &.:.;.*.*.Z < < < .   e.",
"e.> X.X.X.} } } { { { { n P ;.*.H Z q 9 < .   e.",
"e.* [ [ [ [ ] ] ] ] ] ] ] v F P 8.B q 9 < X   e.",
"e.& ) ) ) ) ) ) ) ) ) ) ( 0 =.$.L A r q < .   e.",
"e.& ` ] ` ] ` ` ` ] ` _ h ;.>.:.:.J r q 9 .   e.",
"e.* { { { { { { { { ' j >.6.2.>.>.K e e q X   e.",
"e.% R R W W | O.O.o.z 2.7.6.5.2.,.P r e 9 X   e.",
"e.          ~ #.@.2 6.0.8.7.6.5.5.I t t q X   e.",
"e.e.e.e.e.  ^ 3.8 4 w.0.9.8.7.6.6.U a t e X   e.",
"e.e.e.e.e.  ! 8 . 6 w.q.9.9.8.7.6.Z a a e X   e.",
"e.e.e.e.e.  + . e.6 w.q.0.9.5.G k f f a t X   e.",
"e.e.e.e.e.    e.e.6 w.w.;.D l M b g s a t X   e.",
"e.e.e.e.e.e.e.e.e.7 Y m y p u y w 3 3 3 , .   e.",
"e.e.e.e.e.e.e.e.e.  . . . . . . . .   . .     e.",
"e.e.e.e.e.e.e.e.e.e.e.e.e.e.e.e.e.e.e.e.e.e.e.e."
};
