/* XPM */
static char *exit[] = {
/* columns rows colors chars-per-pixel */
"24 24 94 2",
"   c black",
".  c #0D0000",
"X  c #180000",
"o  c #1D0000",
"O  c #210000",
"+  c #240000",
"@  c #330000",
"#  c #370B06",
"$  c #3B0000",
"%  c #400000",
"&  c #450000",
"*  c #470D07",
"=  c #490000",
"-  c #590C04",
";  c #56190D",
":  c #5B1B0E",
">  c #5F180D",
",  c #462313",
"<  c #532514",
"1  c #5D331C",
"2  c #630F08",
"3  c #6E0D07",
"4  c #680F08",
"5  c #6E0F08",
"6  c #60130A",
"7  c #61130A",
"8  c #60160C",
"9  c #6D1009",
"0  c #700000",
"q  c #770704",
"w  c #730E07",
"e  c #780B06",
"r  c #790C07",
"t  c #7E0A06",
"y  c #62391F",
"u  c #783812",
"i  c #674928",
"p  c #694023",
"a  c #6D4525",
"s  c #714A28",
"d  c #714D2A",
"f  c #724D29",
"g  c #764F2B",
"h  c #71512C",
"j  c #7A532D",
"k  c #78542D",
"l  c #7E5830",
"z  c #800000",
"x  c #820000",
"c  c #840000",
"v  c #860301",
"b  c #840A05",
"n  c #880603",
"m  c #8A0603",
"M  c #8A0704",
"N  c #8C0402",
"B  c #8A0904",
"V  c #8E0904",
"C  c #A30000",
"Z  c #A40302",
"A  c #A80000",
"S  c #AD0000",
"D  c #BA0000",
"F  c #BE0000",
"G  c #954010",
"H  c #944112",
"J  c #964313",
"K  c #974313",
"L  c #974717",
"P  c #974817",
"I  c #835D33",
"U  c #836336",
"Y  c #866235",
"T  c #846437",
"R  c #856537",
"E  c #866637",
"W  c #876738",
"Q  c #896638",
"!  c #8E6B3A",
"~  c #906D3B",
"^  c #9F6D37",
"/  c #97733F",
"(  c #A0723C",
")  c #A1753E",
"_  c #9A7540",
"`  c #9C7741",
"'  c #A17A42",
"]  c #A17B43",
"[  c #A27B43",
"{  c #C20000",
"}  c #C40000",
"|  c #C50000",
" . c gray100",
".. c None",
/* pixels */
"................................................",
"................K K K K K K K K K K K K K K K ..",
"................L / ) ) ) ) / ) ) ) ) ) ) ^ K ..",
"................L ' [ [ [ [ [ [ [ [ [ [ ' ^ K ..",
"................P [ [ R Y [ [ [ [ [ [ [ [ / K ..",
"................P [ [ U # I [ [ [ [ [ [ [ ^ K ..",
"................P [ [ ~ r 3 I ' [ [ [ [ [ / K ..",
"................P [ [ ` 4 | e j [ [ [ [ [ ) K ..",
"................P [ [ [ 7 | | r g [ [ [ [ ^ K ..",
"................P [ ' ' > | | | t s [ [ [ / K ..",
"..... @ $ & & & - > 7 2 M | | | | b a [ [ ) K ..",
"....X C | { | | | | | | | | | | | | B p [ ) K ..",
"....o C | | | | | | | | | | | | | | | q k / K ..",
"....+ S | | | | | | | | | | | | | | V 1 ' ^ K ..",
"....+ 0 x x x x v m m m N F | | | 9 g [ [ ^ K ..",
"....            u W R R , { | D : Q [ [ [ / K ..",
"................P [ [ [ > | Z < ` [ [ [ [ / K ..",
"................P [ [ / 3 b y [ [ [ [ [ [ ^ K ..",
"................P [ ' g * k [ [ [ [ [ [ [ / K ..",
"................P [ ' i ! [ [ [ [ [ [ [ [ ^ K ..",
"................P ' [ [ [ [ [ [ [ [ ' ' [ ) K ..",
"................L / ) ) ) ) ) / ) ) ) / ) ^ K ..",
"................K K K K K K K K K K K K K K K ..",
"................................................"
};
