/* XPM */
static char *help[] = {
/* columns rows colors chars-per-pixel */
"24 24 252 2",
"   c black",
".  c #020073",
"X  c #000074",
"o  c #020074",
"O  c #00007A",
"+  c #01037B",
"@  c #02037A",
"#  c #02037B",
"$  c #00027C",
"%  c #03047B",
"&  c #06067B",
"*  c #07067A",
"=  c #0F0870",
"-  c #0E0B75",
";  c #11096D",
":  c #100C77",
">  c #160F74",
",  c #13107C",
"<  c #1F1878",
"1  c #29196C",
"2  c #201571",
"3  c #2A1E75",
"4  c #3F275F",
"5  c #2C2076",
"6  c #362167",
"7  c #3B2367",
"8  c #4B2F58",
"9  c #4A2F5A",
"0  c #442863",
"q  c #4E3064",
"w  c #40327E",
"e  c #683A4E",
"r  c #683D56",
"t  c #743F44",
"y  c #6D465E",
"u  c #7E535F",
"i  c #614972",
"p  c #6C5784",
"a  c #7A6183",
"s  c #995530",
"d  c #985E36",
"f  c #A55627",
"g  c #AD6A2D",
"h  c #A46330",
"j  c #8B5248",
"k  c #8E584F",
"l  c #985F45",
"z  c #925E56",
"x  c #895F66",
"c  c #96655E",
"v  c #9A6355",
"b  c #9B787F",
"n  c #A06146",
"m  c #A96A4B",
"M  c #A16953",
"N  c #A1726A",
"B  c #AA7C70",
"V  c #E07307",
"C  c #E07407",
"Z  c #E17810",
"A  c #987C8E",
"S  c #987C8F",
"D  c #987D8F",
"F  c #E5820A",
"G  c #E5830B",
"H  c #E38016",
"J  c #E78811",
"K  c #E98E11",
"L  c #E98F11",
"P  c #E98F12",
"I  c #E98F13",
"U  c #E88E15",
"Y  c #E99012",
"T  c #E99113",
"R  c #EA9113",
"E  c #E99014",
"W  c #E99115",
"Q  c #E99017",
"!  c #E99116",
"~  c #EA9114",
"^  c #EA9115",
"/  c #EA9116",
"(  c #EA9117",
")  c #EA9217",
"_  c #EA9218",
"`  c #EA9219",
"'  c #EA9319",
"]  c #EA931A",
"[  c #EA931C",
"{  c #EA941B",
"}  c #EA941C",
"|  c #EA951F",
" . c #EA961F",
".. c #E48221",
"X. c #E5872A",
"o. c #E68A20",
"O. c #E28935",
"+. c #E58A31",
"@. c #E68B31",
"#. c #E68B32",
"$. c #E68C33",
"%. c #E68C34",
"&. c #E99322",
"*. c #E99323",
"=. c #E89025",
"-. c #EB9620",
";. c #EB9725",
":. c #E8932E",
">. c #EB9B2B",
",. c #EB9B2E",
"<. c #EC9C2D",
"1. c #E7903A",
"2. c #E7903B",
"3. c #E7913C",
"4. c #E7913D",
"5. c #E7923E",
"6. c #E7923F",
"7. c #E8943E",
"8. c #EA9933",
"9. c #EB9C33",
"0. c #EB9D34",
"q. c #EB9F3E",
"w. c #C0815A",
"e. c #C19179",
"r. c #D69F75",
"t. c #E49140",
"y. c #E69547",
"u. c #E89543",
"i. c #E89544",
"p. c #E89545",
"a. c #E89645",
"s. c #E89646",
"d. c #E89747",
"f. c #E89748",
"g. c #EA9B44",
"h. c #EB9F45",
"j. c #E89849",
"k. c #E9994A",
"l. c #E9994B",
"z. c #E99A4C",
"x. c #E99A4D",
"c. c #E99B4E",
"v. c #E99B4F",
"b. c #E99C4F",
"n. c #EA9D4C",
"m. c #E59F5D",
"M. c #E99C50",
"N. c #E99C51",
"B. c #E99D51",
"V. c #E99D52",
"C. c #EA9D52",
"Z. c #EA9E53",
"A. c #EA9E54",
"S. c #EA9F55",
"D. c #EA9F56",
"F. c #EBA24A",
"G. c #EDA548",
"H. c #EAA057",
"J. c #EAA158",
"K. c #EAA159",
"L. c #EAA15A",
"P. c #EBA25A",
"I. c #EBA25B",
"U. c #EBA35C",
"Y. c #EBA45E",
"T. c #EBA45F",
"R. c #EEAA51",
"E. c #EEAD5E",
"W. c #E4A76F",
"Q. c #EBA560",
"!. c #EBA561",
"~. c #EBA662",
"^. c #EBA764",
"/. c #ECA763",
"(. c #ECA764",
"). c #ECA865",
"_. c #ECA866",
"`. c #ECA967",
"'. c #EDAE66",
"]. c #ECA968",
"[. c #ECAA69",
"{. c #ECAB6A",
"}. c #EDAB6B",
"|. c #ECAC6C",
" X c #EDAC6C",
".X c #EDAC6D",
"XX c #EDAD6E",
"oX c #EDAD6F",
"OX c #EDAE70",
"+X c #EDAF71",
"@X c #EDAF72",
"#X c #EEB06C",
"$X c #EEB073",
"%X c #EEB174",
"&X c #EEB175",
"*X c #EEB276",
"=X c #EEB277",
"-X c #EEB278",
";X c #EEB378",
":X c #EEB379",
">X c #EEB47A",
",X c #EFB47B",
"<X c #EFB57C",
"1X c #EFB67E",
"2X c #EFB67F",
"3X c #EFB77F",
"4X c #F0B873",
"5X c #9E8291",
"6X c #A3858E",
"7X c #BC9A93",
"8X c #C29D91",
"9X c #C8A393",
"0X c #EFB780",
"qX c #EFB881",
"wX c #EFB882",
"eX c #E1B694",
"rX c #F0B984",
"tX c #F0BA85",
"yX c #F0BA86",
"uX c #F0BB87",
"iX c #F0BD83",
"pX c #F1BC84",
"aX c #F0BB88",
"sX c #F0BC89",
"dX c #F0BC8A",
"fX c #F0BD8A",
"gX c #F0BD8B",
"hX c #F0BE8A",
"jX c #F2C287",
"kX c #F1C090",
"lX c #F1C191",
"zX c #F1C192",
"xX c #F1C293",
"cX c #F2C395",
"vX c #F2C69A",
"bX c #F2C69B",
"nX c #F2C79C",
"mX c #F3C79C",
"MX c #F4CA98",
"NX c #F3CAA1",
"BX c #F3CAA2",
"VX c #F3CBA3",
"CX c #F4CCA4",
"ZX c #F4CFAB",
"AX c #F5D0AC",
"SX c #F5D1AD",
"DX c #F6D5B5",
"FX c #F6D5B6",
"GX c #F6D6B7",
"HX c #F6D9BC",
"JX c gray100",
"KX c None",
/* pixels */
"KXKXKXKXKXKXKXKXKXKXKXKXKXKXR I I R KXKXKXKXKXKX",
"KXKXKXKXKXKXKXKXKXKXKXKXI I K F F R KXKXKXKXKXKX",
"KXKXKXKXKXKX  X @ 4 d g h s f V C R R KXKXKXKXKX",
"KXKXKXKXKX@ $ $ $ $ $ $ $ @ @ t Z G R KXKXKXKXKX",
"KXKXKXKX- @ $ $ $ $ $ $ $ $ $ $ r Z ) KXKXKXKXKX",
"KXKXR 9 $ $ $ $ > 0 r j 6 $ $ $ 3 Z I ) KXKXKXKX",
"R ! ! l @ $ 2 k O.+.+.+.n $ $ $ 7 X.[ R KXKXKXKX",
"! :.i.u.v z t.6.4.4.2.2.m $ $ $ q O.O.! R KXKXKX",
"R &.z.z.k.k.k.s.f.i.i.M * $ $ $ y 4.4.=.! KXKXKX",
"R ) n.S.A.C.C.C.N.N.c $ $ $ * u y.y.i.7.! R KXKX",
"KX) 8.T.T.U.I.I.P.x @ $ $ 3 w.N.N.x.x.x.&.R KXKX",
"KXR ) )._._.)./.N $ $ $ 5 m.Y.U.P.H.P.D.g.! KXKX",
"KXKX` F.XXXXXX XB $ $ $ 2 [.`.^./././.Y.Y.] R KX",
"KXKXR | ,X=X=X=Xr.$ $ $ % W..X.X X[.[.`.[.h.` KX",
"KXKXKX` '.rXpXpX2X, $ $ X e.:X=X=X=X@X@X@X.X` R ",
"KXKXKX! 0.dXaXgXjX5 @ @ @ A 0X0X0X<X<X>X>X:Xq.! ",
"KXKXKXR ` iXxXzXlXp $ $ $ a dXdXuXuXiXyXyX#X9.` ",
"KXKXKXKX' R.mXbXvX9X6X8XeXcXxXzXzXzXdXE.;.` R R ",
"KXKXKXKXR | BXCXCXBX5XD S A 7XmXiXG.] ` R KXKXKX",
"KXKXKXKXKX| 4XSXZXSX: o o o i <.] ) R KXKXKXKXKX",
"KXKXKXKXKXR >.DXDXDX: X o X 8 R KXKXKXKXKXKXKXKX",
"KXKXKXKXKXKX| MXHXjX= X o X . KXKXKXKXKXKXKXKXKX",
"KXKXKXKXKXKX! <.|  .; . o o . KXKXKXKXKXKXKXKXKX",
"KXKXKXKXKXKXR R R KXKXKXKXKXKXKXKXKXKXKXKXKXKXKX"
};
