/* XPM */
static char *import[] = {
/* columns rows colors chars-per-pixel */
"24 24 165 2",
"   c black",
".  c #000B00",
"X  c #000E00",
"o  c #090909",
"O  c #091E00",
"+  c #0A1E00",
"@  c gray8",
"#  c gray9",
"$  c #181818",
"%  c #191919",
"&  c #1B1B1B",
"*  c gray12",
"=  c #0B2600",
"-  c #0C2700",
";  c #0E2C00",
":  c #113500",
">  c #103700",
",  c #123700",
"<  c #123B00",
"1  c #1D3910",
"2  c #252525",
"3  c #2A2A2A",
"4  c gray17",
"5  c #2C2C2C",
"6  c #2D2D2D",
"7  c gray18",
"8  c #353535",
"9  c gray22",
"0  c #393939",
"q  c gray24",
"w  c #144000",
"e  c #154200",
"r  c #164600",
"t  c #174802",
"y  c #1E490C",
"u  c #185000",
"i  c #195000",
"p  c #1B5900",
"a  c #1C5A00",
"s  c #1E6200",
"d  c #234D10",
"f  c #2B5C16",
"g  c #2E5625",
"h  c #335132",
"j  c #206900",
"k  c #2D6514",
"l  c #2D6C11",
"z  c #237300",
"x  c #2E7515",
"c  c #3F6919",
"v  c #487500",
"b  c #506B1B",
"n  c #607700",
"m  c #414141",
"M  c gray27",
"N  c gray28",
"B  c #494949",
"V  c #4B4B4B",
"C  c #4C4C4C",
"Z  c gray31",
"A  c #515151",
"S  c gray32",
"D  c #535353",
"F  c gray34",
"G  c #585858",
"H  c #5D5D5D",
"J  c gray37",
"K  c #4F6048",
"L  c #496650",
"P  c #5C6758",
"I  c #507755",
"U  c #626461",
"Y  c #646464",
"T  c #656565",
"R  c #686868",
"E  c gray43",
"W  c #606D7A",
"Q  c #747474",
"!  c #767676",
"~  c #777777",
"^  c gray47",
"/  c #797979",
"(  c #7B7B7B",
")  c #7E7E7E",
"_  c #6C768B",
"`  c #717B91",
"'  c #298500",
"]  c #2A8800",
"[  c #2F8B08",
"{  c #2F9005",
"}  c #2D9500",
"|  c #2E9600",
" . c #328F0E",
".. c #3E8A00",
"X. c #319F00",
"o. c #379012",
"O. c #33A600",
"+. c #34AB00",
"@. c #39A800",
"#. c #38B700",
"$. c #38B800",
"%. c #39BC00",
"&. c #3ABE00",
"*. c #3ABF00",
"=. c #3BC300",
"-. c #3CC300",
";. c #3CC500",
":. c #758097",
">. c #949A00",
",. c #A3974A",
"<. c #AF9D66",
"1. c #A79E7B",
"2. c #ACA643",
"3. c #B0A648",
"4. c #B6A946",
"5. c #ACAC6E",
"6. c #B6A36E",
"7. c #B6A968",
"8. c #DFAB15",
"9. c #F0B300",
"0. c #F0B407",
"q. c #FFBD00",
"w. c #CCA840",
"e. c #CEAB45",
"r. c #CFC400",
"t. c #DEC300",
"y. c #DFC300",
"u. c #DFD110",
"i. c #D3C922",
"p. c #D1C934",
"a. c #E0C700",
"s. c #E1CB00",
"d. c #EADB05",
"f. c #F2DE00",
"g. c #F5E300",
"h. c #FDEB00",
"j. c #FEEC00",
"k. c #FFED00",
"l. c #C5C464",
"z. c #808080",
"x. c gray52",
"c. c #868686",
"v. c gray53",
"b. c #828EA7",
"n. c #8D99AB",
"m. c #8B98B3",
"M. c #8F9FB6",
"N. c #A4AA85",
"B. c #A9A79C",
"V. c #ADB5A5",
"C. c #A4B1BD",
"Z. c #B0B8A5",
"A. c #98A6C3",
"S. c #9BACC4",
"D. c #9CACC7",
"F. c #B1BECF",
"G. c #B4C4E5",
"H. c #B5C6E8",
"J. c #B6C6E8",
"K. c #B6C7EA",
"L. c #B7C8EC",
"P. c #B9CAEE",
"I. c #BACBEF",
"U. c gray100",
"Y. c None",
/* pixels */
"` m.m.m.m.m.m.m.m.m.m.m.m._ Y.Y.Y.Y.Y.Y.Y.Y.Y.Y.",
"m.I.I.B.K.I.I.I.I.I.I.I.I.b.Y.Y.Y.Y.Y.Y.Y.Y.Y.Y.",
"m.I.I.w.e.2.7.<.I.I.I.I.I.b.Y.Y.Y.Y.Y.Y.Y.Y.Y.Y.",
"m.I.I.w.q.y.f.4.J.Z.l.5.I.b.Y.Y.Y.Y.Y.Y.Y.Y.Y.Y.",
"m.J.6.0.q.y.k.h.u.k.k.V.I.b.Y.Y.Y.Y.Y.Y.Y.Y.Y.Y.",
"m.1.8.q.9.a.k.k.k.k.i.M.I.b.Y.Y.Y.Y.Y.Y.Y.Y.Y.Y.",
"m.I.G.,.s.k.k.k.k.g.b x D.b.Y.Y.Y.+   Y.Y.Y.Y.Y.",
"m.I.N.d.k.k.k.k.r.v &.;.I b.Y.Y.w u Y.Y.Y.Y.Y.Y.",
"m.I.I.F.3.p.k.>...;.;.;.o.W Y.< X.j Y.Y.Y.Y.Y.Y.",
"m.I.I.I.I.C.n @.;.;.;.;.;.g > } ;.s Y.Y.Y.Y.Y.Y.",
"m.I.I.I.K.h &.;.;.;.;.;.;.[ ' ;.;.a Y.Y.Y.Y.Y.Y.",
"m.I.I.I.I.D.c #.;.;.;.;.;.;.;.;.;.u Y.Y.Y.Y.Y.Y.",
":.A.A.A.A.A.n.L  .;.;.;.;.;.;.;.;.1 4 & % o   Y.",
"Y.Y.Y.Y.Y.Y.Y.Y.= p ;.;.;.;.;.;.=.K v.v.( T 5 # ",
"Y.Y.Y.Y.Y.Y.Y.X r | ;.;.;.;.;.;.%.P v.v.v.v.z.& ",
"Y.Y.Y.Y.Y.  , z ;.;.;.;.;.;.;.;.O.U ( T D q q 2 ",
"Y.Y.Y.Y.. = ' +.%.;.;.;.;.;.;.;.{ V Z Y ^ v.v.4 ",
"Y.Y.Y.Y.      + ; , w r d f k l y D Z ) v.v.v.4 ",
"Y.Y.Y.Y.Y.Y.Y.Y.Y.Y.Y.4 E v.v.v.x.v.H q v.v.v.4 ",
"Y.Y.Y.Y.Y.Y.Y.Y.Y.Y.Y.V R G G G F F Q D v.v.v.3 ",
"Y.Y.Y.Y.Y.Y.Y.Y.Y.Y.Y.V v.v.v.v.v.v.v.D v.v.v.5 ",
"Y.Y.Y.Y.Y.Y.Y.Y.Y.Y.Y.V v.v.v.v.v.v.v.N T R T 4 ",
"Y.Y.Y.Y.Y.Y.Y.Y.Y.Y.Y.V ~ ~ ~ ~ ~ ~ ~ 8 8 5 %   ",
"Y.Y.Y.Y.Y.Y.Y.Y.Y.Y.Y.# 0 V D J Z N 5   Y.Y.Y.Y."
};
