/* XPM */
static char *import[] = {
/* columns rows colors chars-per-pixel */
"24 24 222 2",
"   c black",
".  c #000401",
"X  c #000700",
"o  c #000800",
"O  c #000901",
"+  c #010802",
"@  c #010902",
"#  c #000B01",
"$  c #010A02",
"%  c #000C01",
"&  c #010E03",
"*  c #001101",
"=  c #011003",
"-  c #021205",
";  c #001402",
":  c #011703",
">  c #001B03",
",  c #011A03",
"<  c #011804",
"1  c #031806",
"2  c #031906",
"3  c #021D05",
"4  c #0C1710",
"5  c #002203",
"6  c #032107",
"7  c #022306",
"8  c #012605",
"9  c #012705",
"0  c #052409",
"q  c #05240A",
"w  c #062B0B",
"e  c #072D0D",
"r  c #003004",
"t  c #05310B",
"y  c #07300D",
"u  c #06390C",
"i  c #08380F",
"p  c #0A3B11",
"a  c #122D1A",
"s  c #1A370B",
"d  c #11351A",
"f  c #03460A",
"g  c #05450D",
"h  c #0D5517",
"j  c #184E14",
"k  c #184B24",
"l  c #184E24",
"z  c #195F27",
"x  c #066711",
"c  c #0E6C1B",
"v  c #186326",
"b  c #1A6E29",
"n  c #137A22",
"m  c #167D25",
"M  c #2D430E",
"N  c #224110",
"B  c #204A12",
"V  c #244B16",
"C  c #264818",
"Z  c #2E461A",
"A  c #35430D",
"S  c #3B430D",
"D  c #3E560A",
"F  c #3E551D",
"G  c #234230",
"H  c #224F30",
"J  c #2D443C",
"K  c #21552F",
"L  c #245D33",
"P  c #226532",
"I  c #475923",
"U  c #647708",
"Y  c #657806",
"T  c #7E712E",
"R  c #515867",
"E  c #5B6E6E",
"W  c #5F6A7B",
"Q  c #626C7E",
"!  c #636B81",
"~  c #697487",
"^  c #6D788C",
"/  c #6E788D",
"(  c #737F94",
")  c #028010",
"_  c #0D931E",
"`  c #169429",
"'  c #01A212",
"]  c #03A716",
"[  c #08A01B",
"{  c #09A41B",
"}  c #0AA81C",
"|  c #06B019",
" . c #09B41C",
".. c #0EA221",
"X. c #0CBA21",
"o. c #0DBB22",
"O. c #0EBD23",
"+. c #0FBF25",
"@. c #15B52B",
"#. c #10B925",
"$. c #1CBC33",
"%. c #26883A",
"&. c #229235",
"*. c #26B53E",
"=. c #21BF39",
"-. c #26BF3E",
";. c #11C127",
":. c #12C129",
">. c #14C62B",
",. c #15C82C",
"<. c #16CB2E",
"1. c #17CD2F",
"2. c #18C32F",
"3. c #1DC435",
"4. c #18CC30",
"5. c #1BD234",
"6. c #1CD435",
"7. c #1DD637",
"8. c #1ED038",
"9. c #1FD839",
"0. c #1FD939",
"q. c #21D53B",
"w. c #20DA3A",
"e. c #22DD3D",
"r. c #22DE3E",
"t. c #23DF3E",
"y. c #24E03F",
"u. c #26D542",
"i. c #24DD40",
"p. c #24E140",
"a. c #25E341",
"s. c #26E442",
"d. c #27E543",
"f. c #27E644",
"g. c #28E745",
"h. c #2FE14D",
"j. c #29E846",
"k. c #2AEA47",
"l. c #2AEB48",
"z. c #2BEB48",
"x. c #2BEC49",
"c. c #2CED49",
"v. c #2CEE4A",
"b. c #2DEF4B",
"n. c #2DF04C",
"m. c #2EF14D",
"M. c #2FF24E",
"N. c #30EB4F",
"B. c #30F34F",
"V. c #30F44F",
"C. c #31F550",
"Z. c #33F852",
"A. c #33F953",
"S. c #35FC56",
"D. c #36FE57",
"F. c #7C8905",
"G. c #778A9A",
"H. c #788199",
"J. c #7A859B",
"K. c #8D6400",
"L. c #E77B04",
"P. c #9DA201",
"I. c #AEAF11",
"U. c #9EA568",
"Y. c #B3B964",
"T. c #B1B872",
"R. c #BFC133",
"E. c #BCC03D",
"W. c #B9C062",
"Q. c #D79400",
"!. c #D7B800",
"~. c #EB8500",
"^. c #FF8700",
"/. c #CFD01A",
"(. c #D1C606",
"). c #C9CB24",
"_. c #C5C837",
"`. c #C8CB30",
"'. c #CFD22C",
"]. c #E7DC00",
"[. c #E4E410",
"{. c #F5F403",
"}. c #F9F800",
"|. c #FCFB00",
" X c #FDFC00",
".X c #FEFD00",
"XX c #FFFE00",
"oX c #968B89",
"OX c #818EA6",
"+X c #8B97B0",
"@X c #8A97B2",
"#X c #919DB9",
"$X c #93A3BE",
"%X c #94A3BE",
"&X c #9BA8B8",
"*X c #A6B081",
"=X c #A9B387",
"-X c #A6B096",
";X c #ABB69C",
":X c #AEB897",
">X c #A2A5B6",
",X c #A5B0A3",
"<X c #A9B5A0",
"1X c #A8B4A6",
"2X c #A4B1B3",
"3X c #AAB7B5",
"4X c #ADB9B1",
"5X c #ADBABE",
"6X c #96A3C1",
"7X c #AFBCC7",
"8X c #ABBACA",
"9X c #AEBDD7",
"0X c #A9B8D9",
"qX c #AFBFE1",
"wX c #B5C6E5",
"eX c #B6C5E6",
"rX c #B6C6E8",
"tX c #B6C7EA",
"yX c #B9CAEE",
"uX c #BACBEF",
"iX c gray100",
"pX c None",
/* pixels */
"pXpXpXpXpXpXpXpXpXpXpXpX  X pXpXpXpXpXpXpXpXpXpX",
"pXpXpXpXpXpXpXpXpXpXpX  > f ; pXpXpXpXpXpXpXpXpX",
"pXpXpXpXpXpXpXpXpXpX% 9 { o.g * pXpXpX    pXpXpX",
"pXpXpXpXpXpXpXpXpXpX< x O.:.:.t X pX  1 X pXpXpX",
"pXpX  o pXpXpXpXpXpXpX3 _ ,.4.2.q o t n   pXpXpX",
"pXo 5 r o pXpXpXpXpXpX  6 @.6.0.$.h i.m   pXpXpX",
"* r ' ] 9 R OXJ.OX^ ~ OX( d 8.t.a.g.z.b Q OXW pX",
"; ) |  .} a wXyX%X4 6XuXuX$Xl f.v.c.n.P 0XuXH.pX",
"  > _ O.+...J G.k j oX3X&XG =.c.n.C.A.K rXuXH.pX",
"pX  9 O.,.,.` v 6.B L.T s u.n.V.Z.D.D.H rXuXH.pX",
"pXpXo u 4.5.6.0.t.N ^.K.Y D C L %.*.h.V 9XuXH.pX",
"pXpXpX& c 0.t.a.f.M ^.Q..X.X.XR.I.P.U I uXuXH.pX",
"pXpXo e 3.i.s.k.v.A ^.Q..X.X.X.X.X.X.X-XuXuXH.pX",
"pX< i q.a.g.z.c.V.S ~.!..X.X.X.X.X.X/.rXuXuXH.pX",
"  - q e p z &.-.b.Z ]..X.X.X.X.X.X.XE.uXuXuXH.pX",
"pXpXpXpXpXJ.@XE F F..X.X.X.X.X.X.X.X|.=XuXuXH.pX",
"pXpXpXpXpX+XuXtX,XY.(..X.X.X.X.X.X.X.X[.5XuXH.pX",
"pXpXpXpXpX+XuXuXuXuX>X4X'..X.X.X.X.X.X.X`.wXH.pX",
"pXpXpXpXpX+XuXuXuXuXuXuXT..X.X{.*X1X<X;X:X8XH.pX",
"pXpXpXpXpX+XuXuXuXuXuXuX2X|..XY.uXuXuXuXuXuXH.pX",
"pXpXpXpXpX+XuXuXuXuXuXuXuX)._.eXuXuXuXuXuXuXH.pX",
"pXpXpXpXpX+XuXuXuXuXuXuXuXU.7XuXuXuXuXuXuXuXH.pX",
"pXpXpXpXpX^ #X#X#X#X#X#X#X#X#X#X#X#X#X#X#X#X! pX",
"pXpXpXpXpXpXpXpXpXpXpXpXpXpXpXpXpXpXpXpXpXpXpXpX"
};
