/* XPM */
static char *location[] = {
/* columns rows colors chars-per-pixel */
"24 24 167 2",
"   c black",
".  c #080400",
"X  c #0F0801",
"o  c #160C02",
"O  c #261503",
"+  c #271503",
"@  c #261504",
"#  c #261505",
"$  c #301A04",
"%  c #301A05",
"&  c #311A04",
"*  c #321B04",
"=  c #331B04",
"-  c #351D04",
";  c #371F06",
":  c #3A1F05",
">  c #3B2005",
",  c #3C2005",
"<  c #3F2206",
"1  c #3F2405",
"2  c #31370C",
"3  c #0E4909",
"4  c #0F4A0A",
"5  c #104B0B",
"6  c #114C0B",
"7  c #114C0C",
"8  c #124D0D",
"9  c #124E0D",
"0  c #134E0D",
"q  c #134F0E",
"w  c #144F0D",
"e  c #144F0E",
"r  c #144F0F",
"t  c #154F0E",
"y  c #14500E",
"u  c #15500E",
"i  c #15510F",
"p  c #16510F",
"a  c #16520F",
"s  c #175110",
"d  c #165210",
"f  c #165310",
"g  c #165311",
"h  c #175210",
"j  c #175311",
"k  c #185310",
"l  c #185311",
"z  c #185411",
"x  c #195411",
"c  c #195511",
"v  c #185412",
"b  c #185512",
"n  c #195412",
"m  c #195512",
"M  c #195513",
"N  c #195612",
"B  c #1A5613",
"V  c #1B5613",
"C  c #1B5713",
"Z  c #1E5212",
"A  c #1C5714",
"S  c #1A5813",
"D  c #1B5814",
"F  c #1B5815",
"G  c #1B5914",
"H  c #1C5814",
"J  c #1C5815",
"K  c #1D5916",
"L  c #1E5B14",
"P  c #1E5A16",
"I  c #1F5B16",
"U  c #225312",
"Y  c #225316",
"T  c #235614",
"R  c #225F19",
"E  c #225F1A",
"W  c #2A5515",
"Q  c #364C11",
"!  c #216019",
"~  c #226019",
"^  c #23601A",
"/  c #23631A",
"(  c #24611B",
")  c #25631B",
"_  c #24621D",
"`  c #26621C",
"'  c #27671D",
"]  c #26681C",
"[  c #28651E",
"{  c #28681E",
"}  c #2F6F1F",
"|  c #39711C",
" . c #246D24",
".. c #2E6D24",
"X. c #326E23",
"o. c #306E24",
"O. c #367529",
"+. c #482707",
"@. c #492807",
"#. c #4B2907",
"$. c #4D2A07",
"%. c #4F2B07",
"&. c #4C2A08",
"*. c #502B07",
"=. c #512C07",
"-. c #522E07",
";. c #542E08",
":. c #5F3409",
">. c #6D2400",
",. c #6C3B0A",
"<. c #6E390B",
"1. c #7F2F07",
"2. c #7E2F08",
"3. c #7E2F09",
"4. c #7F2F08",
"5. c #7D3108",
"6. c #7F3008",
"7. c #46400F",
"8. c #404B11",
"9. c #5E410F",
"0. c #802F07",
"q. c #802D08",
"w. c #802E08",
"e. c #802F08",
"r. c #802F09",
"t. c #803008",
"y. c #803009",
"u. c #81460C",
"i. c #83480D",
"p. c #8A4B0C",
"a. c #AB5D10",
"s. c #AC5E10",
"d. c #B36211",
"f. c #BB6611",
"g. c #BE6812",
"h. c #F07F2F",
"j. c #F07833",
"k. c #F07B31",
"l. c #F1822E",
"z. c #F1832E",
"x. c #F1852D",
"c. c #F1862D",
"v. c #F1872C",
"b. c #F2872C",
"n. c #F2892B",
"m. c #F28A2B",
"M. c #F2882C",
"N. c #F28E29",
"B. c #F38F29",
"V. c #F39227",
"C. c #F39028",
"Z. c #F39228",
"A. c #F49925",
"S. c #F59F22",
"D. c #F7B21A",
"F. c #F8B618",
"G. c #F8BC16",
"H. c #F9BE15",
"J. c #F5A121",
"K. c #F5A420",
"L. c #F9C313",
"P. c #F9C114",
"I. c #FAC712",
"U. c #FACB10",
"Y. c #FBCC10",
"T. c gray100",
"R. c None",
/* pixels */
"R.R.R.R.R.R.R.R.R.R.R.R.R.R.R.R.j.l.M.b.j.R.R.R.",
"R.R.R.R.R.R.R.R.R.R.R.R.R.R.R.l.B.G.U.I.S.v.R.R.",
"R.R.R.R.R.R.R.R.R.R.R.R.R.R.j.B.Y.Y.Y.Y.U.K.h.R.",
"R.R.R.R.R.R.R.R.R.R.R.R.R.R.h.F.Y.Y.Y.Y.U.U.n.R.",
"R.R.R.R.R.R.R.R.R.R.R.R.R.R.b.I.Y.Y.Y.Y.U.U.V.R.",
"R.R.R.R.R.R.| ] R. ...R.R.R.b.H.Y.Y.Y.Y.U.U.B.R.",
"R.R.R._ _ ) B a R B s ! R.R.j.S.Y.Y.Y.Y.U.H.b.R.",
"R.R.! 8 6 H 5 5 B 4 4 s } R.R.M.D.Y.Y.Y.P.n.j.R.",
"R.  D 8 4 v 4 4 l 5 y B B ) R.R.z.B.A.V.v.j.R.R.",
"O.! v 4 4 B 8 v B a B 8 4 D R.R.R.R.j.R.R.R.R.R.",
"[ 8 D v B H H B A a e 4 5 8 X.R.  R.R.R.R.R.R.R.",
"H 4 D 4 8 H y 8 D 4 s 6 5 B W * ,., X R.R.R.R.R.",
") 6 a 5 6 s 6 4 e 8 B e 8 Y #.s.g.g.,.$   R.R.R.",
"o.D B 5 4 B 4 6 8 a 5 B 2 u.g.g.g.g.g.a.*.+ R.R.",
"R.O.! e 8 T 5 5 U L Z 7.d.g.g.g.g.g.g.g.g.p., . ",
"R.R.R.[ [ <.8.Q 9.  + , : *.-.-.-.$.*.$.$.; $ o ",
"R.R.R.R.R.0.4.4.4.R.R.R.&.i.i.i.i.i.i.i.i.1 R.R.",
"R.R.R.R.R.t.4.4.4.R.R.R.&.i.i.$.+.+.#.i.i.1 R.R.",
"R.R.R.R.R.e.4.4.4.R.R.R.&.i.i.-.;.;.-.i.i.1 R.R.",
"R.R.R.R.R.e.4.4.e.R.R.R.&.i.i.-.;.;.*.u.i.1 R.R.",
"R.R.R.R.>.1.4.4.1.R.R.R.&.i.i.-.;.;.-.i.i.1 R.R.",
"R.R.R.R.e.4.4.4.4.4.R.R.&.i.i.-.;.;.*.i.i.1 R.R.",
"R.R.R.R.4.4.6.e.4.6.R.R.# ; ; % : : $ ; ; # R.R.",
"R.R.R.R.R.R.R.R.R.R.R.R.R.R.R.R.R.R.R.R.R.R.R.R."
};
