/* XPM */
static char *location[] = {
/* columns rows colors chars-per-pixel */
"24 24 189 2",
"   c #1E130E",
".  c gray10",
"X  c gray11",
"o  c #2A140D",
"O  c #211A16",
"+  c #251E1A",
"@  c #261E1B",
"#  c #311F0F",
"$  c #322010",
"%  c #332010",
"&  c #332110",
"*  c #232323",
"=  c gray15",
"-  c #272727",
";  c #292422",
":  c #2A2726",
">  c #282828",
",  c #2A2A2A",
"<  c gray17",
"1  c #2C2C2C",
"2  c #2D2D2D",
"3  c gray18",
"4  c #2F2F2F",
"5  c #343434",
"6  c gray21",
"7  c #393939",
"8  c #3A3A3A",
"9  c gray24",
"0  c #3F3F3F",
"q  c #125E1E",
"w  c #17591D",
"e  c #1B551D",
"r  c #1F511D",
"t  c #185C1D",
"y  c #1E5C1E",
"u  c #0E6F1F",
"i  c #05721F",
"p  c #0B731F",
"a  c #09751F",
"s  c #13601E",
"d  c #17631E",
"f  c #14691E",
"g  c #1B611E",
"h  c #19681E",
"j  c #12751F",
"k  c #1A7820",
"l  c #197F20",
"z  c #21501D",
"x  c #225C1D",
"c  c #235F1E",
"v  c #244E24",
"b  c #23661E",
"n  c #20731F",
"m  c #25711F",
"M  c #2F782A",
"N  c #442B15",
"B  c #452C16",
"V  c #452F1B",
"C  c #472F1B",
"Z  c #58381C",
"A  c #5B3A1D",
"S  c #5E3C1E",
"D  c #683827",
"F  c #7A3F29",
"G  c #42501E",
"H  c #4E413C",
"J  c #50413B",
"K  c #52403A",
"L  c gray25",
"P  c #464F45",
"I  c gray29",
"U  c #504642",
"Y  c #544A46",
"T  c #554C48",
"R  c #505050",
"E  c gray32",
"W  c gray33",
"Q  c #585858",
"!  c #517D51",
"~  c #645344",
"^  c #655A4B",
"/  c #67584B",
"(  c #68594C",
")  c #625D5B",
"_  c #685D50",
"`  c #6A5C50",
"'  c #656565",
"]  c gray40",
"[  c #686868",
"{  c DimGray",
"}  c #6D6C6B",
"|  c #6C6C6C",
" . c gray45",
".. c #767676",
"X. c #777777",
"o. c gray48",
"O. c #7B7B7B",
"+. c gray50",
"@. c #078121",
"#. c #088221",
"$. c #098420",
"%. c #0A8721",
"&. c #0B8820",
"*. c #0B8A21",
"=. c #0C8C21",
"-. c #0D8D22",
";. c #0E8F22",
":. c #0E9122",
">. c #0F9222",
",. c #158820",
"<. c #1C8D21",
"1. c #109422",
"2. c #119622",
"3. c #119722",
"4. c #129922",
"5. c #139B23",
"6. c #149C23",
"7. c #149E23",
"8. c #159F23",
"9. c #16A123",
"0. c #17A323",
"q. c #17A423",
"w. c #18A623",
"e. c #19A723",
"r. c #19A924",
"t. c #1AA924",
"y. c #1AAB24",
"u. c #1BAC24",
"i. c #1CAE24",
"p. c #1FB323",
"a. c #1CB024",
"s. c #1DB024",
"d. c #1DB124",
"f. c #1EB324",
"g. c #1FB424",
"h. c #1FB625",
"j. c #218220",
"k. c #248320",
"l. c #278420",
"z. c #228A21",
"x. c #2A8F21",
"c. c #2F8A29",
"v. c #279021",
"b. c #299021",
"n. c #33812B",
"m. c #3F953A",
"M. c #20B825",
"N. c #21B925",
"B. c #22BB25",
"V. c #22BC25",
"C. c #23BE25",
"Z. c #25BE25",
"A. c #29BC24",
"S. c #24C025",
"D. c #25C125",
"F. c #25C325",
"G. c #26C426",
"H. c #27C626",
"J. c #28C826",
"K. c #28C926",
"L. c #29CB26",
"P. c #2ACD26",
"I. c #2BCE26",
"U. c #2CCB26",
"Y. c #2ECA25",
"T. c #2CD227",
"R. c #2ED627",
"E. c #2FD827",
"W. c #30DC26",
"Q. c #538A4F",
"!. c #86442D",
"~. c #87452D",
"^. c #808080",
"/. c gray51",
"(. c #848484",
"). c #888888",
"_. c gray54",
"`. c #8B8B8B",
"'. c gray57",
"]. c #929292",
"[. c #939393",
"{. c gray58",
"}. c #989898",
"|. c #9A9A9A",
" X c gray61",
".X c #F1F1F1",
"XX c gray98",
"oX c gray100",
"OX c None",
/* pixels */
"OXOXOXOXOXOXOXOXOXOXOXOXOXOXX - OXOXOXOXOXOXOXOX",
"OXOXOXOXOXOXOXOXOXOXOXOXOXOX4 7 . OXOXOXOXOXOXOX",
"OXOXOXOXOXOXOXOXOXOXOXOXOX. I (.1 OXOXOXOXOXOXOX",
"OXOXOXOXOXOXOXOXOXOXOXOXOX4 _. X9 . OXOXOXOXOXOX",
"OXOXOXOXOXOXOXOXOXOXOXOX. 0  X X+.1 OXOXOXOXOXOX",
"OXOXOXOXOXOXOXOXOXOXOXOX, +. X X X7 . OXOXOXOXOX",
"OXOXr r d h y z OXOXOXOX6  X}.]. X .* OXOXOXOXOX",
"OXz q p &.1.l <.n OXOXOX7 O.X.O.[ O.= OXOXOXOXOX",
"OXe i $.-.4.0.d.j.OXOXOX7 { XX`./.X.- OXOXOXOXOX",
"OXw a $.>.6.y.p.z.k.x OX7 ] .X_.| O.= OXOXOXOXOX",
"OXs @.=.1.q.i.M.G.A.b OX7 [.] W (.O.- OXOXOXOXOX",
"OXt $.>.6.e.h.V.K.v.z OX7  X X X|.O.= OXOXOXOXOX",
"z u &.1.9.u.M.F.I.Y.m OX9  X X X XO.- OXOXOXOXOX",
"z f >.6.w.d.V.K.Y.l.x OX7  X X X XO.- OXOXOXOXOX",
"z j >.0.y.h.F.I.E.b.OXOX7 |. X}. XO.- OXOXOXOXOX",
"OXg ,.0.d.V.G.T.W.b.. . 7 [.J O H O.* . . . . . ",
"OXz k y.h.F.K.T.c.P R E [ ) F o D } W W W W W > ",
"OXOXv ! M Z.n.m.Q. X X X XJ ~.o !.T  X X X X X9 ",
"OXOX4 `.^ G _  X X X X X XK ~.o ~.Y  X X X X XL ",
"OXOX4 ].( S `  X X X X X XK ~.o ~.Y  X X X X X9 ",
"OXOX4 ].~ S (  X X X X X XK ~.o ~.Y  X|. X|. X9 ",
"OXOX, 5 C S V 6 5 5 5 5 5 ; @ O @ : 6 5 6 6 6 , ",
"OXOXOX% A S Z & OXOXOXOXOXOXOXOXOXOXOXOXOXOXOXOX",
"OXOXOX& B N N # OXOXOXOXOXOXOXOXOXOXOXOXOXOXOXOX"
};
