/* XPM */
static char *prefs[] = {
/* columns rows colors chars-per-pixel */
"24 24 120 2",
"   c #3F3F3F",
".  c #11097E",
"X  c #120A7F",
"o  c #150D7E",
"O  c #160E7D",
"+  c #160E7E",
"@  c #18107D",
"#  c #1A137C",
"$  c #1B157B",
"%  c #1E187A",
"&  c #20197A",
"*  c #241E78",
"=  c #262077",
"-  c #292376",
";  c #2B2675",
":  c #2C2775",
">  c #332F72",
",  c #342F72",
"<  c #3C386F",
"1  c #3D396E",
"2  c gray25",
"3  c #414141",
"4  c gray26",
"5  c #434343",
"6  c #444444",
"7  c gray27",
"8  c #464646",
"9  c gray28",
"0  c #484848",
"q  c #494949",
"w  c gray29",
"e  c #4B4B4B",
"r  c #4C4C4C",
"t  c #4E4E4E",
"y  c gray31",
"u  c #505050",
"i  c #515151",
"p  c gray32",
"a  c #515054",
"s  c #565656",
"d  c gray35",
"f  c #5A5A5A",
"g  c #5B5B5B",
"h  c gray37",
"j  c #45426A",
"k  c #44416C",
"l  c #504F67",
"z  c #514F67",
"x  c #525063",
"c  c #545365",
"v  c #555465",
"b  c #565565",
"n  c #575664",
"m  c #585764",
"M  c #5B5A63",
"N  c #585864",
"B  c #595864",
"V  c #5C5C62",
"C  c #5D5C62",
"Z  c #5D5D62",
"A  c #5F5F61",
"S  c #5E5D69",
"D  c #605F6D",
"F  c gray38",
"G  c gray39",
"H  c #646464",
"J  c gray40",
"K  c #676767",
"L  c #63626E",
"P  c DimGray",
"I  c gray42",
"U  c #6C6C6C",
"Y  c #6D6D6D",
"T  c gray43",
"R  c gray44",
"E  c #727272",
"W  c #747474",
"Q  c gray46",
"!  c #767676",
"~  c gray47",
"^  c #797979",
"/  c gray48",
"(  c gray49",
")  c #7E7E7E",
"_  c #110980",
"`  c #808080",
"'  c #818181",
"]  c gray52",
"[  c #868686",
"{  c gray53",
"}  c #888888",
"|  c #898989",
" . c #88888A",
".. c gray54",
"X. c #8B8B8B",
"o. c #8E8E8E",
"O. c #909090",
"+. c #939393",
"@. c #959595",
"#. c gray59",
"$. c #989898",
"%. c gray60",
"&. c #9A9A9A",
"*. c #9B9B9B",
"=. c gray61",
"-. c gray62",
";. c #A0A0A0",
":. c gray63",
">. c #A2A2A2",
",. c gray64",
"<. c #A4A4A4",
"1. c #A5A5A5",
"2. c gray65",
"3. c #A7A7A7",
"4. c gray66",
"5. c #A9A9A9",
"6. c #ACACAC",
"7. c gray71",
"8. c gray100",
"9. c None",
/* pixels */
"9.9.9.9.9.  0 0 0 0 7   9.9.9.9.9.9.9.9.9.9.9.9.",
"9.9.9.9.9.  t ..{ { ( 7   9.9.9.9.9.9.9.9.G G 9.",
"9.9.9.9.9.  0 ..@.,.5.E 7 9.9.9.9.9.9.9.H U U G ",
"9.9.9.9.9.3 7 0 7 0 &.1.t   9.9.9.9.9.P ! 7.O.P ",
"9.0 0     9.9.9.9.  t 1.^ 7 9.9.9.9.9.P 5.6.U G ",
"3 0 ..u   9.9.9.9.9.7 &.h   9.9.9.9.U ! U U G 9.",
"  P 5.u   9.9.9.9.  s 5.7   9.9.G U ^ U H 9.9.9.",
"0 { 1.7 9.9.9.9.  7 ..@.7 9.9.G U ( U G 9.9.9.9.",
"0 ^ 1.u 7 2     7 ! 1.^ 3 9.G U ' P H 9.9.9.9.9.",
"  7 o.,.g 0 s P &.5.5.E 7 H U ' U G 9.9.9.9.9.9.",
"9.  0 =.5.5.5.1.,.1.1.1.f P ' U G 9.9.9.9.9.9.9.",
"9.9.3 7 0 7 7 7 7 a S L U ( G 9.9.9.9.9.9.9.9.9.",
"9.9.9.    9.9.9.n k . . L ( u 5 9.9.9.9.9.9.9.9.",
"9.9.9.9.9.9.9.v 1 X X X -  .,.y 3 9.9.9.9.9.9.9.",
"9.9.9.9.9.G n > X X . @ z ^ 3.,.t 3 9.9.9.9.9.9.",
"9.9.9.9.G n ; _ _ X $ v d 7 ! 1.=.0 3 9.9.9.9.9.",
"9.9.9.A v * X X . & v F 9.  7 K 3.*.0 2 9.9.9.9.",
"9.9.G n % . X X = B G 9.9.9.2 7 g ,.&.0   9.9.9.",
"9.V n @ _ X _ ; v F 9.9.9.9.9.9.7 u ,.@.7 2 9.9.",
"V z O X _ X > n G 9.9.9.9.9.9.9.9.7 e &.@.7   9.",
"V z . _ _ < n G 9.9.9.9.9.9.9.9.9.9.3 0 +.O.7 3 ",
"9.V z O k n 9.9.9.9.9.9.9.9.9.9.9.9.9.  7 ..H 3 ",
"9.9.V V n 9.9.9.9.9.9.9.9.9.9.9.9.9.9.9.2 7 0 3 ",
"9.9.9.G 9.9.9.9.9.9.9.9.9.9.9.9.9.9.9.9.9.    9."
};
