/* XPM */
static char *prefs[] = {
/* columns rows colors chars-per-pixel */
"24 24 155 2",
"   c black",
".  c #0C0404",
"X  c #130A0A",
"o  c #1C0C0C",
"O  c #1E1010",
"+  c #200A0A",
"@  c #221414",
"#  c #291515",
"$  c #2A1E15",
"%  c #361C16",
"&  c #341818",
"*  c #3D1818",
"=  c gray14",
"-  c #342924",
";  c #3E3C26",
":  c gray20",
">  c #3E3232",
",  c #3C3C3B",
"<  c #2E1A7C",
"1  c #301B77",
"2  c #3D3070",
"3  c #430E0E",
"4  c #431212",
"5  c #421E1E",
"6  c #4B1616",
"7  c #4C1B1B",
"8  c #5F1D1D",
"9  c #4D2424",
"0  c #42312D",
"q  c #403F3D",
"w  c #512C2D",
"e  c #5C2E2E",
"r  c #513D3C",
"t  c #5A3A38",
"y  c #631A1A",
"u  c #622121",
"i  c #642C2B",
"p  c #67302F",
"a  c #663332",
"s  c #633938",
"d  c #6F3332",
"f  c #742C2C",
"g  c #782727",
"h  c #7A2A2A",
"j  c #7A3B3B",
"k  c #463D67",
"l  c #483467",
"z  c #43423E",
"x  c #4A4A3D",
"c  c #434341",
"v  c #4C4441",
"b  c #4B4A46",
"n  c #4D4C48",
"m  c #544C44",
"M  c #53465E",
"N  c #52524B",
"B  c #5A5449",
"V  c #5A5C44",
"C  c #5D5A4D",
"Z  c #555555",
"A  c #575559",
"S  c #5C5C55",
"D  c #5E5C5F",
"F  c #544E69",
"G  c #555165",
"H  c #585563",
"J  c #5D5A65",
"K  c #5D5573",
"L  c #5F6043",
"P  c #61454F",
"I  c #60475B",
"U  c #625D4D",
"Y  c #66575D",
"T  c #605E53",
"R  c #714552",
"E  c #765E67",
"W  c #616343",
"Q  c #64644C",
"!  c #6B6D45",
"~  c #6D6E4A",
"^  c #646252",
"/  c #6A6952",
"(  c #6E7047",
")  c #72734C",
"_  c #747452",
"`  c #76735D",
"'  c #7A7956",
"]  c #7D7B5B",
"[  c #636363",
"{  c #63606E",
"}  c #686667",
"|  c #6C6B6B",
" . c #74606A",
".. c #756576",
"X. c #76657C",
"o. c #727064",
"O. c #7C7963",
"+. c #707070",
"@. c #7A7A7A",
"#. c #291283",
"$. c #2E1789",
"%. c #321B8C",
"&. c #362090",
"*. c #3A2491",
"=. c #3F2996",
"-. c #412B97",
";. c #46309A",
":. c #4B369D",
">. c #513DA2",
",. c #5A4E87",
"<. c #5743A6",
"1. c #5C49A9",
"2. c #624FAD",
"3. c #6352A7",
"4. c #6653B0",
"5. c #6855B1",
"6. c #6D5BB4",
"7. c #6F6583",
"8. c #7C6D9D",
"9. c #766AA4",
"0. c #7B6CA6",
"q. c #7A6EAC",
"w. c #7563B9",
"e. c #7867BA",
"r. c #7B6CB9",
"t. c #8A2D2C",
"y. c #963234",
"u. c #A91E1E",
"i. c #A62424",
"p. c #AC2323",
"a. c #AC2B2B",
"s. c #A13E3E",
"d. c #AE3131",
"f. c #AE3D3D",
"g. c #8D4F53",
"h. c #865257",
"j. c #817E5E",
"k. c #827E61",
"l. c #807B68",
"z. c #A74646",
"x. c #AE4949",
"c. c #B04343",
"v. c #B04B4B",
"b. c #B15252",
"n. c #838063",
"m. c #85816A",
"M. c #8A856C",
"N. c #8D886E",
"B. c #828282",
"V. c gray55",
"C. c #9A9A9A",
"Z. c gray63",
"A. c #B6B6B6",
"S. c gray100",
"D. c None",
/* pixels */
"D.D.D.D.D.D.D.D.D.D.D.D.D.D.D.D.D.D.D.D.D.D.D.D.",
"D.D.D.D.D.B.D.D.D.D.D.D.D.D.v c Z D.D.D.D.D.D.D.",
"D.D.D.Z | | Z D.D.D.D.D.D.z n S c   D.D.D.D.D.D.",
"D.D.D.| C.Z.| D.D.D.D.D., b M.` c : D.D.D.D.D.D.",
"D.D.D.[ @.A.+.D.D.D.D., c m.O.c , D.D.D.D.D.D.D.",
"D.D.D.D.| +.@.} D.D.D.c l.N.N c D.D.D.c , D.D.D.",
"D.D.D.D.D.[ @.+.B.D.c b N.m.c D.D.D.c , z z D.D.",
"D.D.D.D.D.D.| B.| D.: c m.n.c c D., c V ! z , D.",
"D.D.D.D.D.D.+.+.@.[ D.c ^ n.Q c c c V ( V z c D.",
"D.D.D.D.D.D.D.} B.+.Z c C j.] _ L ~ ~ L z , D.D.",
"D.D.            | V.D c ] ] ' _ ) ( L z =       ",
"D.D.. o o o o o @ | | [ o.Q q , x x , @ o O o X ",
"D.D.. g g g g % 0 A K 3.9.J f f e - - i j j e o ",
"D.D.o 6 6 6 6 $ n H &.>.6.7.w 7 4 ; C * 9 9 9 O ",
"D.D.4 d.d.a.a.r ^ J #.-.1.e. .f.f.i a x.b.b.b.& ",
"D.D.3 a.p.p.s U n.` k %.:.5.0.h.f.c.c.x.x.x.b.& ",
"D.D.3 p.u.d B n.n.m P 1 *.>.w.X.s.f.f.c.v.v.b.& ",
"D.D.3 p.h m k.j.B a u.A #.:.2.r.E f.f.c.x.v.b.& ",
"D.D.3 t.v k.k.U t u.u.y.l %.>.5.8.g.f.c.x.v.b.& ",
"D.D.5 v Z T / r i.p.p.a.R < -.2.w...c.c.v.v.b.& ",
"D.D.> B S S z y y y y y u M $.:.4.q.Y i i i a # ",
"D.D.: c N z c D.D.D.D.D.D.H 2 *.,.{ D D.D.D.D.D.",
"D.D.D.  c , D.D.D.D.D.D.D.D.G F J D.D.D.D.D.D.D.",
"D.D.D.D.D.D.D.D.D.D.D.D.D.D.D [ D.D.D.D.D.D.D.D."
};
