/* XPM */
static char *show[] = {
/* columns rows colors chars-per-pixel */
"24 24 187 2",
"   c black",
".  c gray2",
"X  c #040506",
"o  c #060606",
"O  c #0B0C0D",
"+  c gray6",
"@  c #151515",
"#  c #161616",
"$  c #17191E",
"%  c #191919",
"&  c #1E1E1E",
"*  c gray12",
"=  c #1F2021",
"-  c gray15",
";  c #24262B",
":  c gray17",
">  c #2A2A2C",
",  c gray18",
"<  c #2B2E32",
"1  c #2A2E36",
"2  c #2D3139",
"3  c #343434",
"4  c #353536",
"5  c #32353A",
"6  c #33353A",
"7  c #34383E",
"8  c gray22",
"9  c #393939",
"0  c #3C3C3C",
"q  c #3E3E3E",
"w  c #333840",
"e  c #383B43",
"r  c #4B4B4B",
"t  c #4C4C4D",
"y  c #4D4F54",
"u  c #4C5058",
"i  c #555555",
"p  c #565656",
"a  c gray34",
"s  c #515459",
"d  c #53565A",
"f  c #52565E",
"g  c #5E6065",
"h  c #5E6166",
"j  c #5C6068",
"k  c #646464",
"l  c #62666E",
"z  c #676768",
"x  c #727272",
"c  c #767676",
"v  c gray49",
"b  c #7D7D7E",
"n  c #747E95",
"m  c #7A859D",
"M  c #B87C3E",
"N  c #A67A4E",
"B  c #E67E0A",
"V  c #BE9206",
"C  c #A3A41C",
"Z  c #9E836B",
"A  c #9F9C6B",
"S  c #9FA273",
"D  c #A79C4B",
"F  c #A49358",
"G  c #B28457",
"H  c #A98563",
"J  c #B48B63",
"K  c #B48E6B",
"L  c #A7AC42",
"P  c #B6BD57",
"I  c #B7BE5C",
"U  c #B7BE63",
"Y  c #B7BF6D",
"T  c #B6BD74",
"R  c #BEC123",
"E  c #BCC046",
"W  c #BAC04C",
"Q  c #B9C166",
"!  c #BCC261",
"~  c #B8C06F",
"^  c #C5830C",
"/  c #CB9800",
"(  c #D09C00",
")  c #CCB403",
"_  c #D7B800",
"`  c #E38800",
"'  c #F48300",
"]  c #F78300",
"[  c #FB8400",
"{  c #FD8500",
"}  c #FF8700",
"|  c #C68644",
" . c #D0C800",
".. c #D4CB00",
"X. c #D6CE00",
"o. c #D9C200",
"O. c #DFCB00",
"+. c #D4D412",
"@. c #C5C737",
"#. c #C0C53F",
"$. c #C5C838",
"%. c #C5C93E",
"&. c #D3D522",
"*. c #D2D426",
"=. c #D2D429",
"-. c #DFE016",
";. c #E2DE05",
":. c #E7E80C",
">. c #E9E400",
",. c #E9E703",
"<. c #EEEE02",
"1. c #F1EC00",
"2. c #F2EE00",
"3. c #F3F201",
"4. c #F5F300",
"5. c #F7F600",
"6. c #F8F700",
"7. c #FBFA00",
"8. c #FDFC00",
"9. c #FEFD00",
"0. c #FFFE00",
"q. c #C2C640",
"w. c #C5C940",
"e. c #C0C767",
"r. c #C1C864",
"t. c #868686",
"y. c #84858A",
"u. c #8A8B8B",
"i. c #8B8B8C",
"p. c #8B8C8D",
"a. c #8A8C91",
"s. c #9C8E89",
"d. c #939393",
"f. c #989898",
"g. c #9F9C9F",
"h. c #9FA9B7",
"j. c #AB9484",
"k. c #AC9686",
"l. c #A39792",
"z. c #A39A9A",
"x. c #AC9B92",
"c. c #AC9B94",
"v. c #A3AC85",
"b. c #A4AE8B",
"n. c #A1AC93",
"m. c #AAB387",
"M. c #ADB681",
"N. c #ACB688",
"B. c #AEB899",
"V. c #A4A4A4",
"C. c gray65",
"Z. c gray66",
"A. c gray68",
"S. c #AEB9A3",
"D. c #A9B6B2",
"F. c #AAB9BF",
"G. c #AEBAB9",
"H. c #A6B4C4",
"J. c #ADB2C7",
"K. c #A8B6CA",
"L. c #ADBBC1",
"P. c #A8B8CD",
"I. c #AAB9CF",
"U. c #AEBCC9",
"Y. c #A8B7D3",
"T. c #A8B7D7",
"R. c #AFBAD7",
"E. c #AFBFD4",
"W. c #AABADA",
"Q. c #ACB9D8",
"!. c #AEBEE0",
"~. c #B0C0DB",
"^. c #B1C0DF",
"/. c #B4C5E7",
"(. c #B9CAEE",
"). c #BACBEF",
"_. c #C5C5C5",
"`. c #C6C6C6",
"'. c #C8C8C8",
"]. c #D0D0D0",
"[. c #D5D5D5",
"{. c #D8D8D8",
"}. c gray87",
"|. c gray97",
" X c #FEFEFE",
".X c gray100",
"XX c None",
/* pixels */
"XXXXXXXXXXXXXXXXXXXXXXXXXXXXXXXXXXXXXXXXXXXXXXXX",
",     o q &     : 9     + q %     3 3     & r # ",
".Xx   t..X}.o & |..Xp   C..X`.  8 .X.X8   '..XZ.",
"l w 1 e l y 1 1 f j 2 1 7 p 5 $ $ y y $ $ 5 d < ",
").).).).).).).).).).).).m X W.).).).).).).).).).",
"x.).P.).).).).).).).).).m X !.).).z.j.).!.).).).",
"] J C F | s.).).).).).).m o !.).).c.[ G L S K H ",
"} }  .2.V Q.).).D.~ b.).m o !.).).c.} } ) 4.( l.",
"} } X.8.8.w.r.&.8.3.L.).m X W.).).G } } _ 8.8.$.",
"} } X.8.8.8.8.8.8.$.).).m X ^.J.N { } } _ 8.8.8.",
"} ` >.8.8.8.8.8.8.M.).).m o W.N ` { } ' o.8.8.8.",
"/ 2.8.8.8.8.8.8.<.P.).).m o W.).R.k.^ O.8.8.8.8.",
"8.8.8.8.8.8.8.8.8.! ).).m X !.).~.I 4.8.8.8.8.8.",
";.8.8.8.8.8.8.8.8.7.B.).m X !.).n.%.,.8.8.8.8.8.",
"g.S %.8.8.8.8.8.8.8.+.~.m X !.).).).h.D w.8.8.8.",
").).L.7.8.8.*.T ~ Q ! b.m X !.).).).).)./.+.8.8.",
").).).=.8.:.G.).).).).).m o !.).).).).).).W 8.8.",
").).).r.8.N.).).).).).).m X !.).).).).).).m.8.W ",
").).).S.I ).).).).).).).m X !.).).).).).).I.R ~.",
"!.!.!.W.T.!.^.W.!.!.^.W.n X !.).).).).).).).H.).",
"i.> o 4 p.z X O v u.= X r C.g $ ; y.y.; % g a.d ",
"{.p   k {.A.o # `.[.0   v {.f.  - '.'.-   d.].c ",
"                                                ",
"XXXXXXXXXXXXXXXXXXXXXXXXXXXXXXXXXXXXXXXXXXXXXXXX"
};
