/* XPM */
static char *show[] = {
/* columns rows colors chars-per-pixel */
"24 24 174 2",
"   c black",
".  c gray1",
"X  c #040404",
"o  c gray3",
"O  c #0B0B0B",
"+  c #0C0C0C",
"@  c #0C0C0D",
"#  c gray6",
"$  c #101010",
"%  c #111317",
"&  c #151515",
"*  c #17191E",
"=  c #181818",
"-  c #191B20",
";  c #1E2025",
":  c #1F2125",
">  c #272727",
",  c gray16",
"<  c #2C2C2C",
"1  c #2D2D2D",
"2  c gray18",
"3  c #313337",
"4  c #343434",
"5  c #353535",
"6  c #323438",
"7  c #333439",
"8  c #37393D",
"9  c #3C3C3C",
"0  c #3F3F3F",
"q  c #444444",
"w  c #44464A",
"e  c #47484C",
"r  c #4B4B4B",
"t  c #48494D",
"y  c #4C4C4C",
"u  c gray30",
"i  c #4E5053",
"p  c #565656",
"a  c #595A5E",
"s  c gray36",
"d  c #5D5D5D",
"f  c #5F5F5F",
"g  c #5B5C60",
"h  c #5E6063",
"j  c #676767",
"k  c #646569",
"l  c #656669",
"z  c gray42",
"x  c gray43",
"c  c #6C6D70",
"v  c #6D6E71",
"b  c gray49",
"n  c #677084",
"m  c #6C768B",
"M  c #BCAD33",
"N  c #B8B237",
"B  c #BDB337",
"V  c #A69E5A",
"C  c #B49A4B",
"Z  c #AE9D67",
"A  c #ABA141",
"S  c #AEA55C",
"D  c #B3A34E",
"F  c #B6B55C",
"G  c #BBB956",
"H  c #BFBC53",
"J  c #A7A761",
"K  c #BEAF7D",
"L  c #B2B262",
"P  c #BCBC68",
"I  c #BDBE6F",
"U  c #B0B277",
"Y  c #B7B979",
"T  c #BBBD7F",
"R  c #DFAE00",
"E  c #DEB500",
"W  c #DFBE00",
"Q  c #CBA431",
"!  c #D3A92F",
"~  c #E6B100",
"^  c #E9B114",
"/  c #F4B504",
"(  c #FCBB00",
")  c #FFBD00",
"_  c #E0B021",
"`  c #C0A34E",
"'  c #C4A842",
"]  c #C6AA56",
"[  c #C5A958",
"{  c #C0BE61",
"}  c #DAC203",
"|  c #DBCE14",
" . c #DBCF18",
".. c #C9C33F",
"X. c #D5C820",
"o. c #D7CB20",
"O. c #D8CC20",
"+. c #D1C930",
"@. c #DAD02A",
"#. c #E3CA00",
"$. c #EFD900",
"%. c #E2D413",
"&. c #E2D51B",
"*. c #E7DA17",
"=. c #E8DA10",
"-. c #E9DB10",
";. c #F0DF03",
":. c #F3DE00",
">. c #F3E206",
",. c #F4E100",
"<. c #F9E700",
"1. c #FEEC00",
"2. c #FFED00",
"3. c #C5C046",
"4. c #CAC547",
"5. c #C4C254",
"6. c #C5C256",
"7. c #C3C25D",
"8. c #C5C358",
"9. c #C3C260",
"0. c #C2C164",
"q. c #838383",
"w. c gray54",
"e. c #8E8E8E",
"r. c #939393",
"t. c #9F9F9F",
"y. c #B2AD94",
"u. c #B5AF95",
"i. c #B6BB88",
"p. c #B4B993",
"a. c #B7BD98",
"s. c gray65",
"d. c #A7A7A7",
"f. c gray67",
"g. c gray68",
"h. c #AFAFAF",
"j. c #AAB3A4",
"k. c #AEB6A3",
"l. c #ADB8B3",
"z. c #B5B4A4",
"x. c #B6B6B6",
"c. c #B7B7B7",
"v. c gray",
"b. c #AFBCC7",
"n. c #ABB8CA",
"m. c #A9B7D4",
"M. c #B1BACA",
"N. c #B1BFD1",
"B. c #B1BFD4",
"V. c #AEBEE0",
"C. c #B4C0C5",
"Z. c #B1C0D4",
"A. c #B4C3D7",
"S. c #B2C1DB",
"D. c #B1C0DF",
"F. c #B5C2D9",
"G. c #B4C5E5",
"H. c #B4C4E7",
"J. c #B5C6E8",
"K. c #B6C7E8",
"L. c #B7C7EB",
"P. c #B7C8EC",
"I. c #B8C9ED",
"U. c #B9CAEE",
"Y. c #BACBEF",
"T. c #C5C5C5",
"R. c #CDCDCD",
"E. c gray81",
"W. c gray82",
"Q. c gray84",
"!. c #DADADA",
"~. c gray87",
"^. c gray100",
"/. c None",
/* pixels */
"/./././././././././././././././././././././././.",
"                                                ",
"y # g.b   e.d.X f x.> 1 c.p # d.q.  w.g.O a v.1 ",
"6 * k t * i h * 8 c : # c 6 * g w * e a * 4 k : ",
"Y.Y.Y.Y.Y.Y.Y.Y.Y.Y.Y.- V.Y.Y.Y.Y.Y.Y.Y.Y.Y.Y.Y.",
"F.n.Y.Y.H.Y.Y.Y.Y.Y.Y.- V.Y.Y.Z z.B.G.Y.K.Y.Y.Y.",
"_ B M Q y.Y.Y.Y.Y.Y.Y.- V.Y.Y.[ / D X.' C Y.Y.Y.",
") W 2.} b.Y.l.I N G.Y.- V.Y.Y.] ) R 2.$.S Y.B.i.",
") W 2.2.*.O.2.2.{ K.Y.- V.Y.u.^ ) R 2.2.<.+.:.2.",
") W 2.2.2.2.2.2.a.Y.Y.- m.D ( ) ) R 2.2.2.2.2.2.",
"E :.2.2.2.2.2.O.P.Y.Y.- V.M.{ Q ~ #.2.2.2.2.2.2.",
"2.2.2.2.2.2.2.&.F.Y.Y.- V.Y.L.L ,.2.2.2.2.2.2.2.",
"2.2.2.2.2.2.2.2.4.Y.Y.- V.Y.K  .2.2.2.2.2.2.2.2.",
"A ..2.2.2.2.2.2.2.i.Y.- V.Y.Y.L.V H =.2.2.2.2.2.",
"Y.P. .2.2.@.0.7.6.G B.- V.Y.Y.Y.Y.Y.P 2.2.>.{ 9.",
"Y.Y.5.2.-.C.Y.Y.Y.Y.Y.- V.Y.Y.Y.Y.Y.j.2.2.Y Y.Y.",
"Y.Y.p.<.a.Y.Y.Y.Y.Y.Y.- V.Y.Y.Y.Y.Y.K.| 3.Y.Y.Y.",
"Y.Y.B.L Y.Y.Y.Y.Y.Y.Y.- V.Y.Y.Y.Y.Y.Y.J Z.Y.Y.Y.",
"m m m m m m m m m m m % n m m m m m m m m m m m ",
"f # R.r.  d.T.o x Q.1 5 !.j # E.t.  s.R.O z ~.4 ",
"=   r 1   4 q   = y   X y &   0 ,   , 0   & y   ",
"/./././././././././././././././././././././././.",
"/./././././././././././././././././././././././.",
"/./././././././././././././././././././././././."
};
