/* XPM */
static char *trash[] = {
/* columns rows colors chars-per-pixel */
"24 24 113 2",
"   c black",
".  c #202020",
"X  c gray14",
"o  c gray18",
"O  c gray20",
"+  c #353535",
"@  c #373737",
"#  c gray22",
"$  c #393939",
"%  c #3A3A3A",
"&  c gray23",
"*  c #3C3C3C",
"=  c gray24",
"-  c #3E3E3E",
";  c #115610",
":  c #115710",
">  c #175117",
",  c #125812",
"<  c #215420",
"1  c #245623",
"2  c #3F543F",
"3  c gray25",
"4  c #494949",
"5  c gray31",
"6  c #515151",
"7  c gray36",
"8  c gray37",
"9  c #5F5F5F",
"0  c #466845",
"q  c #496A49",
"w  c #4A6B49",
"e  c #4B6A4A",
"r  c #486D48",
"t  c #496C48",
"y  c #4B6E4A",
"u  c #4E6B4E",
"i  c #4C6C4C",
"p  c #4D6F4C",
"a  c #4E704E",
"s  c #506D4F",
"d  c #5B6A5B",
"f  c #50724F",
"g  c #507250",
"h  c #606060",
"j  c gray38",
"k  c #656565",
"l  c #626F62",
"z  c #6A6A6A",
"x  c #6C6C6C",
"c  c gray43",
"v  c #657565",
"b  c gray44",
"n  c #727272",
"m  c #707770",
"M  c #717D71",
"N  c #737E73",
"B  c #757C75",
"V  c #7C7C7C",
"C  c gray49",
"Z  c #7E7E7E",
"A  c #7C877B",
"S  c #7A8979",
"D  c #808080",
"F  c #838383",
"G  c gray53",
"H  c #808D80",
"J  c #888888",
"K  c #898989",
"L  c #8D8F8D",
"P  c #8B968B",
"I  c #8F908F",
"U  c #909090",
"Y  c #929292",
"T  c #959595",
"R  c gray59",
"E  c #979797",
"W  c #989898",
"Q  c #9A9A9A",
"!  c gray61",
"~  c gray62",
"^  c #9F9F9F",
"/  c #A0A0A0",
"(  c #A2A2A2",
")  c #A4A4A4",
"_  c #A5A5A5",
"`  c gray65",
"'  c #A7A7A7",
"]  c #A9A9A9",
"[  c #AAAAAA",
"{  c gray67",
"}  c gray68",
"|  c #AFAFAF",
" . c gray69",
".. c #B1B1B1",
"X. c gray70",
"o. c #B4B4B4",
"O. c gray71",
"+. c #B6B6B6",
"@. c #B7B7B7",
"#. c gray72",
"$. c #B9B9B9",
"%. c #BBBBBB",
"&. c gray74",
"*. c gray",
"=. c gray75",
"-. c #C0C0C0",
";. c #C1C1C1",
":. c #C3C3C3",
">. c gray77",
",. c #C5C5C5",
"<. c #C6C6C6",
"1. c gray100",
"2. c None",
/* pixels */
"2.2.2.2.2.2.2.2.2.2.2.2.2.2.2.2.2.2.2.2.2.2.2.2.",
"2.2.2.2.2.2.. 5   2.2.2.2.2.2.2.2.2.2.2.2.2.2.2.",
"2.2.2.2.2.2.= n k F c = 2.. 2.2.2.2.2.2.2.2.2.2.",
"2.2.2.2.2.2.2.2.> 2 B F F V z j 2.2.2.2.2.2.2.2.",
"2.2.2.2.2.2.2., : : : : < s A L m 9 2.2.2.2.2.2.",
"2.2.2.2.2.2.  : : : : , : : : < e N N d X 2.2.2.",
"2.2.2.2.6 J v g a p a a e p e t t 0 u l k 9 2.2.",
"2.2.2.2.= X.] >.>.` <.>.` >.{ ;.>.` >.P 2.o 2.2.",
"2.2.2.2.  ' @.#.>.] <.<.' <.] >.>.] >.H 2.2.2.2.",
"2.2.2.2.2.( :.] >.` <.<.` >.] <.>.` <.S 2.2.2.2.",
"2.2.2.2.2.^ <.' <.` >.<.] <.` >.<.] >.L 2.2.2.2.",
"2.2.2.2.2.Q >.` <.` <.<.` >.' <.>.] <.J 2.2.2.2.",
"2.2.2.2.2.R >.` >.` <.<.` <.' >.<.] >.V 2.2.2.2.",
"2.2.2.2.2.U >.] <.` <.<.` >.] <.>.` >.c 2.2.2.2.",
"2.2.2.2.2.J >.` <.' >.<.] <.` >.%.X.%.9 2.2.2.2.",
"2.2.2.2.2.F <.' <.] ;.>.` >.' <.X.%.X.= 2.2.2.2.",
"2.2.2.2.2.c >.] <.X.#.<.] >.` >.] >.(   2.2.2.2.",
"2.2.2.2.2.j >.` >.@.#.>.] >.] <.] <.( 2.2.2.2.2.",
"2.2.2.2.2.4 %.] >.#.X.<.` <.] >.` >.^ 2.2.2.2.2.",
"2.2.2.2.2.O { @.#.%.{ >.` >.` >.` >.R 2.2.2.2.2.",
"2.2.2.2.2.2.( ;.] ;.` >.` >.` >.` >.U 2.2.2.2.2.",
"2.2.2.2.2.2.R #.^ X.R @.Q X.R X.Q X.F 2.2.2.2.2.",
"2.2.2.2.2.2.% % O @ % @ % % = O O @ o 2.2.2.2.2.",
"2.2.2.2.2.2.2.2.2.2.2.2.2.2.2.2.2.2.2.2.2.2.2.2."
};
