/* XPM */
static char *trash[] = {
/* columns rows colors chars-per-pixel */
"24 24 115 2",
"   c black",
".  c #4C4C4C",
"X  c #4E4E4E",
"o  c gray31",
"O  c #505050",
"+  c #515151",
"@  c gray32",
"#  c #535353",
"$  c gray33",
"%  c #555555",
"&  c gray34",
"*  c #585858",
"=  c gray35",
"-  c #5A5A5A",
";  c #5B5B5B",
":  c gray36",
">  c #5D5D5D",
",  c gray37",
"<  c #5F5F5F",
"1  c #606060",
"2  c gray38",
"3  c #626262",
"4  c gray39",
"5  c #646464",
"6  c #656565",
"7  c gray40",
"8  c #676767",
"9  c #686868",
"0  c DimGray",
"q  c #6A6A6A",
"w  c gray42",
"e  c #6C6C6C",
"r  c #6D6D6D",
"t  c gray43",
"y  c #6F6F6F",
"u  c gray44",
"i  c #717171",
"p  c #727272",
"a  c gray45",
"s  c #747474",
"d  c gray46",
"f  c #767676",
"g  c #777777",
"h  c #797979",
"j  c gray48",
"k  c #7B7B7B",
"l  c #7C7C7C",
"z  c gray49",
"x  c gray50",
"c  c #808080",
"v  c #818181",
"b  c gray51",
"n  c #848484",
"m  c #868686",
"M  c gray53",
"N  c #888888",
"B  c #898989",
"V  c gray54",
"C  c gray55",
"Z  c #8D8D8D",
"A  c #8E8E8E",
"S  c #909090",
"D  c gray57",
"F  c #929292",
"G  c #959595",
"H  c gray59",
"J  c #9D9D9D",
"K  c gray62",
"L  c #9F9F9F",
"P  c #A0A0A0",
"I  c gray63",
"U  c #A2A2A2",
"Y  c #A4A4A4",
"T  c #A5A5A5",
"R  c gray65",
"E  c #A7A7A7",
"W  c gray66",
"Q  c #A9A9A9",
"!  c #AAAAAA",
"~  c gray67",
"^  c #ACACAC",
"/  c gray68",
"(  c #AEAEAE",
")  c #AFAFAF",
"_  c gray69",
"`  c #B1B1B1",
"'  c #B2B2B2",
"]  c gray70",
"[  c #B4B4B4",
"{  c gray71",
"}  c #B7B7B7",
"|  c gray72",
" . c #B9B9B9",
".. c gray73",
"X. c #BCBCBC",
"o. c gray74",
"O. c gray",
"+. c gray75",
"@. c #C0C0C0",
"#. c #C1C1C1",
"$. c gray76",
"%. c #C3C3C3",
"&. c gray77",
"*. c #C5C5C5",
"=. c #C8C8C8",
"-. c gray79",
";. c #CBCBCB",
":. c gray80",
">. c #D0D0D0",
",. c #D2D2D2",
"<. c gray83",
"1. c gray85",
"2. c gray86",
"3. c gray100",
"4. c None",
/* pixels */
"4.4.4.4.4.4.4.4.4.4.4.4.4.4.4.4.4.4.4.4.4.4.4.4.",
"4.4.4.4.4.4.4.  # # & & * # # # o 4.4.4.4.4.4.4.",
"4.4.4.4.7 & * & 3 r g l l k g r 3 * * # 4.4.4.4.",
"4.4.4.# & r V U R Q V r a V Q ) Q L V 7 * # 4.4.",
"4.4.# * A U Q ` { ) * k k r 3 { ....) R V & & 4.",
"4.4.* v U Q ` ..&.-.H 3 r q 3 ..-.+.{ ) U a # 4.",
"4.4.o q L Q ` ..+.:.<.2.+.+.-.,.:.+.{ ` R ; # 4.",
"4.4.# # 3 H Q ` ..+.&.-.:.-.-.&...{ ` A 3 * ; 4.",
"4.4.# o # & ; g A U Q ` { ` Q L V g ; 3 q * 4.4.",
"4.4.4.# & 3 a r r q 7 3 7 7 r a k V A k * & 4.4.",
"4.4.4.o ; q ; g A L ) +.,.2.-...U g 3 a & 4.4.4.",
"4.4.4.4.* v ; m k 3 a 7 7 q 3 g A a R g & 4.4.4.",
"4.4.4.4.* v 3 A U a :.` R 2.m ` +.r ` 7 3 4.4.4.",
"4.4.4.4.* g 7 m U a :.` U 2.m { ..q { ; 4.4.4.4.",
"4.4.4.4.# a q l U r :.` R 2.v { ..q Q ; 4.4.4.4.",
"4.4.4.4.# 7 a k R r :.` R 2.l ..{ a H * 4.4.4.4.",
"4.4.4.4.& ; g a R r -.` R 2.l ..Q l v # 4.4.4.4.",
"4.4.4.4.4.* k q R r :.` R 2.l +.L m r # 4.4.4.4.",
"4.4.4.4.4.& l 7 R r :.` R 2.g ..A A 3 4.4.4.4.4.",
"4.4.4.4.4.# 3 3 R r :.` R 2.g +.V l * 4.4.4.4.4.",
"4.4.4.4.4.4.& * R r :.{ R 2.a &.r * & 4.4.4.4.4.",
"4.4.4.4.4.4.4.* * 3 R Q R ..q q ; & 4.4.4.4.4.4.",
"4.4.4.4.4.4.4.4.3 & ; 3 3 3 & # 4.4.4.4.4.4.4.4.",
"4.4.4.4.4.4.4.4.4.4.4.4.4.4.4.4.4.4.4.4.4.4.4.4."
};
