/* XPM */
static char *zoom[] = {
/* columns rows colors chars-per-pixel */
"24 24 255 2",
"   c #43241F",
".  c #442222",
"X  c #462321",
"o  c #462322",
"O  c #462422",
"+  c #482522",
"@  c #4D2823",
"#  c #5C3327",
"$  c #5D3327",
"%  c #5E3629",
"&  c #603527",
"*  c #613627",
"=  c #643828",
"-  c gray25",
";  c #4B4B4B",
":  c #4C4B54",
">  c #4C4B57",
",  c #4D4B5D",
"<  c #4E4D5C",
"1  c #524446",
"2  c #52505C",
"3  c #56555F",
"4  c #57565D",
"5  c #57565E",
"6  c #58575C",
"7  c #5C5358",
"8  c #4F4D61",
"9  c #4E4C62",
"0  c #514F64",
"q  c #504C69",
"w  c #514D6B",
"e  c #514D6C",
"r  c #525060",
"t  c #565560",
"y  c #575564",
"u  c #55526B",
"i  c #585764",
"p  c #5B5A67",
"a  c #5C5B60",
"s  c #5E5E64",
"d  c #5F5E67",
"f  c #595868",
"g  c #5F5E69",
"h  c #565370",
"j  c #575375",
"k  c #545078",
"l  c #5D5B73",
"z  c #5C5976",
"x  c #60575C",
"c  c #626168",
"v  c #64636B",
"b  c #64646C",
"n  c #656375",
"m  c #686676",
"M  c #696876",
"N  c #6E6D77",
"B  c #6A687E",
"V  c #6D6C78",
"C  c #70707B",
"Z  c #554F84",
"A  c #5C568B",
"S  c #5E5980",
"D  c #5B5592",
"F  c #5D5695",
"G  c #5E54AC",
"H  c #635F83",
"J  c #6156BA",
"K  c #6357BB",
"L  c #6359B1",
"P  c #6559BD",
"I  c #655ABD",
"U  c #675CBE",
"Y  c #685DBE",
"T  c #695EBE",
"R  c #695EBF",
"E  c #6A5FBF",
"W  c #6A649A",
"Q  c #727080",
"!  c #797785",
"~  c #7A7986",
"^  c #7E7D8C",
"/  c #6B60BF",
"(  c #746EA6",
")  c #756CBC",
"_  c #7C77A4",
"`  c #7C78A3",
"'  c #6B61C0",
"]  c #6C61C0",
"[  c #6C62C0",
"{  c #6D63C0",
"}  c #6E63C0",
"|  c #6E64C1",
" . c #6F64C1",
".. c #6F65C1",
"X. c #7065C1",
"o. c #7066C2",
"O. c #7167C2",
"+. c #7268C2",
"@. c #7369C3",
"#. c #746AC3",
"$. c #756BC3",
"%. c #756BC4",
"&. c #766CC4",
"*. c #766DC4",
"=. c #776DC4",
"-. c #776EC4",
";. c #786EC5",
":. c #786FC5",
">. c #796FC5",
",. c #7970C5",
"<. c #7A70C5",
"1. c #7A71C6",
"2. c #7B71C6",
"3. c #7B72C6",
"4. c #7C72C6",
"5. c #7C73C6",
"6. c #7C73C7",
"7. c #7D74C7",
"8. c #7E75C7",
"9. c #7F76C8",
"0. c #8077C8",
"q. c #867FC0",
"w. c #8178C8",
"e. c #8179C9",
"r. c #8279C9",
"t. c #827AC9",
"y. c #837AC9",
"u. c #837BC9",
"i. c #847BCA",
"p. c #847CCA",
"a. c #857CCA",
"s. c #857DCA",
"d. c #867DCA",
"f. c #867ECB",
"g. c #877ECB",
"h. c #877FCB",
"j. c #86849C",
"k. c #918DB9",
"l. c #9391A6",
"z. c #9B99B1",
"x. c #9E9BB4",
"c. c #A4A2BC",
"v. c #8880CB",
"b. c #8880CC",
"n. c #8981CC",
"m. c #8A82CC",
"M. c #8B83CC",
"N. c #8B83CD",
"B. c #8C84CD",
"V. c #8C85CD",
"C. c #8D85CD",
"Z. c #8D86CE",
"A. c #8E86CE",
"S. c #8E87CE",
"D. c #8F87CE",
"F. c #8F88CE",
"G. c #9088CF",
"H. c #9089CF",
"J. c #9189CF",
"K. c #918ACF",
"L. c #928ACF",
"P. c #928BD0",
"I. c #938CD0",
"U. c #948DD0",
"Y. c #958ED1",
"T. c #968FD1",
"R. c #9590C7",
"E. c #9790D1",
"W. c #9790D2",
"Q. c #9891D2",
"!. c #9892D2",
"~. c #9992D2",
"^. c #9993D3",
"/. c #9A93D3",
"(. c #9A94D3",
"). c #9B94D3",
"_. c #9B95D3",
"`. c #9C95D4",
"'. c #9C96D4",
"]. c #9D96D4",
"[. c #9D97D4",
"{. c #9E97D4",
"}. c #9E98D4",
"|. c #9E98D5",
" X c #9F99D5",
".X c #A39FCB",
"XX c #A09AD5",
"oX c #A19BD6",
"OX c #A29CD6",
"+X c #A39DD6",
"@X c #A39DD7",
"#X c #A39ED7",
"$X c #A49ED7",
"%X c #A49FD7",
"&X c #A59FD7",
"*X c #ABA8C4",
"=X c #A7A2D5",
"-X c #A5A0D8",
";X c #A6A0D8",
":X c #A6A1D8",
">X c #A7A1D8",
",X c #A7A2D8",
"<X c #A8A2D8",
"1X c #A8A3D9",
"2X c #A9A3D9",
"3X c #A9A4D9",
"4X c #AAA5D9",
"5X c #AAA5DA",
"6X c #ABA6DA",
"7X c #ACA7DA",
"8X c #ADA8DB",
"9X c #AEA9DB",
"0X c #AFAADB",
"qX c #AFAADC",
"wX c #AFABDC",
"eX c #B0ABDC",
"rX c #B0ACDC",
"tX c #B1ACDC",
"yX c #B1ADDC",
"uX c #B2ADDD",
"iX c #B2AEDD",
"pX c #B3AEDD",
"aX c #B3AFDD",
"sX c #B4B0DE",
"dX c #B5B1DE",
"fX c #B6B2DE",
"gX c #B6B2DF",
"hX c #B7B3DF",
"jX c #B9B6D6",
"kX c #B8B4DF",
"lX c #B9B6DF",
"zX c #BDBADB",
"xX c #B9B5E0",
"cX c #BAB6E0",
"vX c #BAB7E0",
"bX c #BBB7E1",
"nX c #BBB8E1",
"mX c #BCB8E1",
"MX c #BCB9E1",
"NX c #BDB9E1",
"BX c #BDBAE0",
"VX c #BDBAE1",
"CX c #BEBAE2",
"ZX c #BEBBE2",
"AX c #BFBBE2",
"SX c #BFBCE2",
"DX c #C0BCE2",
"FX c #C0BDE3",
"GX c #C1BEE3",
"HX c #C2BFE3",
"JX c #C2BFE4",
"KX c #C3C0E4",
"LX c #C4C1E4",
"PX c gray100",
"IX c None",
/* pixels */
"IXIXIXIXIXIXIXIXIX; ; ; IXIXIXIXIXIXIXIXIXIXIXIX",
"IXIXIXIXIXIX< 0 j z W H l f t IXIXIXIXIXIXIXIXIX",
"IXIXIXIX; 9 F } #.;.8.i.n.D._ p ; IXIXIXIXIXIXIX",
"IXIXIX> w L ' o.-.6.e.g.D.P.Q.R.n 4 IXIXIXIXIXIX",
"IXIX; 0 K R  .%.2.8.p.n.D.Y.(. X=Xm ; IXIXIXIXIX",
"IXIX, G P ' +.-.7.e.v.D.P.Q. X#X=X=Xd IXIXIXIXIX",
"IX> Z P R o.%.2.9.p.n.P.Y.].oX=X8XtXj.6 IXIXIXIX",
"IX9 J Y  .#.;.8.p.n.D.Y./. X#X5XtXsXkXb IXIXIXIX",
"IXe P / o.;.4.e.h.D.F.Q.].oX2X7XsXkXCXC IXIXIXIX",
"; k Y } #.;.9.p.v.D.Y.(. X=X6XtXsXnXDX^ ; IXIXIX",
"; D } o.-.4.e.h.D.P.Q. XoX5X7XsXxXCXLXz.; IXIXIX",
"; A o.#.2.9.p.n.F.Y._.oX=X6XtXxXCXHXLXl.; IXIXIX",
"IXj +.;.8.e.n.D.P.Q.|.#X5X7XxXxXDXLXLX! ; IXIXIX",
"IXu -.2.e.g.B.P.T.].@X:X7XpXxXCXHXLXLXN IXIXIXIX",
"IX0 ) 7.e.n.D.Y./. X=X5X7XxXxXSXLXLXzXc IXIXIXIX",
"IX; l e.g.D.P.Q.].#X5X7XaXxXZXLXLXLX~ ; IXIXIXIX",
"IXIX2 ( n.D.Y./. X=X5X7XxXxXHXLXLXc.1 - IXIXIXIX",
"IXIXIXt q.Y.Q. X#X5XqXxXxXSXLXLXjXx $ O - IXIXIX",
"IXIXIX; i ` ]. X=X7XtXkXCXSXLXx.7 % = $ O - IXIX",
"IXIXIXIXIXt B k.=XtXsXxXCX*X~ d . + * = $ O - IX",
"IXIXIXIXIXIX; 5 g M Q V v a ; IXIX. + * = # . IX",
"IXIXIXIXIXIXIXIXIXIXIXIXIXIXIXIXIXIX. + * @ . IX",
"IXIXIXIXIXIXIXIXIXIXIXIXIXIXIXIXIXIXIX. .   IXIX",
"IXIXIXIXIXIXIXIXIXIXIXIXIXIXIXIXIXIXIXIXIXIXIXIX"
};
